<svg id="Layer_1" enable-background="new 0 0 512 512" height="512" viewBox="0 0 512 512" width="512" xmlns="http://www.w3.org/2000/svg"><g><g><path clip-rule="evenodd" d="m163.878 504.5c-17.803 0-35.001-7.548-48.253-19.907-42.088 22.816-97.254-.951-106.616-49.032-8.613-44.307 21.778-67.959 50.067-94.433 10.889-10.169 17.717-23.709 22.239-39.035 20.597-69.831-6.453-177.2 82.562-177.2s61.965 107.368 82.562 177.2c4.523 15.326 11.35 28.866 22.239 39.035 28.26 26.475 58.681 50.126 50.039 94.433-9.362 48.081-64.5 71.848-106.588 49.032-13.25 12.359-30.448 19.907-48.251 19.907z" fill="#ffdfcf" fill-rule="evenodd"/></g><g><path clip-rule="evenodd" d="m384.428 247.646c66.315 0 120.07-53.756 120.07-120.073 0-65.769-52.862-119.18-118.399-120.073h-3.313c-65.566.893-118.428 54.304-118.428 120.073 0 66.374 53.813 120.073 120.07 120.073z" fill="#9dc6fb" fill-rule="evenodd"/></g><g><path clip-rule="evenodd" d="m384.428 211.981c46.61 0 84.406-37.796 84.406-84.408s-37.795-84.408-84.406-84.408-84.406 37.796-84.406 84.408 37.795 84.408 84.406 84.408z" fill="#ffdfcf" fill-rule="evenodd"/></g><g><path clip-rule="evenodd" d="m504.497 127.573c0-65.769-52.862-119.18-118.399-120.073h-3.313c-1.181.029-2.333.058-3.486.086 14.836 10.89 27.598 25.207 37.421 41.974 30.594 12.676 52.113 42.838 52.113 78.013 0 33.187-19.157 61.909-47.043 75.708-8.527 17.256-20.021 32.323-33.676 44.307 64.616-1.93 116.383-54.937 116.383-120.015z" fill="#80b4fb" fill-rule="evenodd"/></g><g><path clip-rule="evenodd" d="m468.834 127.573c0-35.175-21.519-65.337-52.113-78.013 13.626 23.306 21.577 51.365 21.577 81.585 0 26.215-5.992 50.847-16.507 72.136 27.886-13.799 47.043-42.521 47.043-75.708z" fill="#ffcebf" fill-rule="evenodd"/></g><g><path clip-rule="evenodd" d="m234.139 448.554c-3.947 14.058-11.811 26.475-22.009 36.039 11.033 5.992 22.988 8.758 34.771 8.758 7.404-8.556 13.107-18.783 16.276-30.076 1.527-5.214 5.041-9.334 9.506-11.754-1.037-7.49-6.309-14.03-14-16.305-10.486-3.082-21.461 2.881-24.544 13.338z" fill="#ffcebf" fill-rule="evenodd"/></g><g><path clip-rule="evenodd" d="m93.616 448.554c3.947 14.058 11.782 26.475 22.009 36.039-11.033 5.992-22.988 8.758-34.771 8.758-7.404-8.556-13.107-18.783-16.276-30.076-1.556-5.214-5.07-9.334-9.506-11.754 1.008-7.49 6.28-14.03 14-16.305 10.458-3.082 21.462 2.881 24.544 13.338z" fill="#ffcebf" fill-rule="evenodd"/></g><g><path clip-rule="evenodd" d="m125.477 144.944c89.015 0 61.965 107.368 82.562 177.171 4.523 15.355 21.433 38.949 32.293 49.118 28.289 26.475 58.71 50.126 50.067 94.433-1.21 6.251-3.226 12.099-5.848 17.487 16.939-9.824 30.046-26.331 34.166-47.591 8.642-44.307-21.778-67.959-50.039-94.433-10.889-10.169-17.717-23.709-22.239-39.035-20.597-69.831 6.453-177.2-82.562-177.2-24.141 0-39.754 7.893-50.067 20.8 3.63-.491 7.519-.75 11.667-.75z" fill="#ffcebf" fill-rule="evenodd"/></g><g><path d="m373.98 137.843c1.465 1.49 3.395 2.235 5.328 2.235 1.898 0 3.8-.72 5.264-2.159 2.954-2.904 2.98-7.667.077-10.621-2.905-2.955-7.654-2.993-10.606-.091-2.954 2.904-2.994 7.652-.091 10.606z"/><path d="m416.103 125.062.058.029c1.073.537 2.211.791 3.331.791 2.747 0 5.387-1.527 6.703-4.159 1.853-3.705.321-8.225-3.383-10.077-3.706-1.854-8.211-.35-10.063 3.354-1.852 3.705-.35 8.21 3.354 10.062z"/><path d="m417.383 154.478c-3.692 1.877-5.163 6.393-3.286 10.085l.029.058c1.32 2.596 3.937 4.08 6.657 4.08 1.148 0 2.316-.265 3.413-.822 3.692-1.877 5.148-6.421 3.271-10.114s-6.392-5.164-10.084-3.287z"/><path d="m336.099 124.255c1.3 2.646 3.945 4.17 6.702 4.17 1.116 0 2.251-.25 3.322-.776 3.718-1.827 5.235-6.351 3.408-10.068-1.826-3.716-6.318-5.249-10.039-3.422-3.717 1.827-5.249 6.322-3.422 10.04z"/><path d="m374.083 92.199c1.458 1.458 3.358 2.183 5.261 2.183 1.922 0 3.846-.74 5.317-2.211 2.929-2.929 2.9-7.707-.028-10.635-2.93-2.929-7.678-2.929-10.607 0s-2.929 7.678 0 10.606z"/><path d="m378.84 179.265c1.94 0 3.881-.749 5.349-2.242l.028-.029c2.903-2.954 2.849-7.688-.105-10.592-2.951-2.903-7.716-2.85-10.62.105-2.903 2.954-2.863 7.703.091 10.606 1.46 1.436 3.358 2.152 5.257 2.152z"/><path d="m384.427 219.481c50.678 0 91.906-41.23 91.906-91.908s-41.229-91.908-91.906-91.908-91.905 41.23-91.905 91.908 41.229 91.908 91.905 91.908zm0-168.816c42.406 0 76.906 34.501 76.906 76.908s-34.5 76.908-76.906 76.908c-42.405 0-76.905-34.501-76.905-76.908s34.5-76.908 76.905-76.908z"/><path d="m384.427 0c-33.204 0-64.66 12.696-88.573 35.749-2.982 2.875-3.069 7.623-.194 10.604 2.874 2.982 7.623 3.07 10.604.194 21.104-20.343 48.863-31.547 78.163-31.547 62.071 0 112.57 50.5 112.57 112.573s-50.499 112.573-112.57 112.573-112.569-50.5-112.569-112.573c0-17.283 3.797-33.837 11.284-49.204 1.814-3.724.267-8.213-3.457-10.027-3.723-1.814-8.213-.267-10.027 3.457-8.493 17.43-12.8 36.195-12.8 55.774 0 24.243 6.799 46.927 18.587 66.249l-30.922 46.817c-.16-1.865-.319-3.727-.476-5.584-2.496-29.455-4.854-57.276-15.084-79.126-12.14-25.93-33.429-38.534-65.085-38.534-31.044 0-52.96 12.994-65.14 38.62-10.206 21.473-12.527 49.256-14.575 73.77l-.353 4.208c-.35 4.127 2.713 7.756 6.841 8.105 4.128.357 7.756-2.714 8.105-6.841l.354-4.225c4.052-48.494 8.242-98.638 64.767-98.638 56.416 0 60.497 48.161 65.222 103.927.682 8.047 1.376 16.189 2.247 24.267l-77.961 118.035c-2.283 3.456-1.332 8.108 2.125 10.392 1.272.84 2.708 1.243 4.126 1.243 2.435 0 4.823-1.184 6.265-3.368l68.531-103.759c1.265 7.255 2.821 14.328 4.814 21.085 5.397 18.288 13.35 32.155 24.305 42.385 2.226 2.085 4.465 4.153 6.697 6.214 25.902 23.92 48.272 44.579 41.108 81.313-3.867 19.857-16.856 36.327-35.636 45.188-16.186 7.636-34.588 8.488-50.908 2.704 7.642-9.224 13.285-19.885 16.515-31.333.001-.004.003-.008.004-.012 1.906-6.465 8.74-10.171 15.222-8.267 4.62 1.367 8.035 5.348 8.699 10.142.52 3.754 3.733 6.472 7.419 6.472.343 0 .689-.023 1.038-.072 4.104-.568 6.969-4.355 6.4-8.458-1.47-10.614-9.045-19.434-19.313-22.472-14.423-4.242-29.611 4.02-33.853 18.413-.005.016-.007.031-.011.047-.005.016-.011.03-.016.046-3.468 12.353-10.353 23.622-19.91 32.588-12.367 11.534-27.684 17.886-43.128 17.886-15.431 0-30.748-6.352-43.131-17.886-9.547-8.928-16.431-20.196-19.936-32.68-2.058-6.98-6.718-12.74-13.122-16.217-6.395-3.472-13.759-4.252-20.737-2.194-10.301 3.037-17.882 11.868-19.313 22.499-.552 4.105 2.328 7.881 6.433 8.434 4.104.549 7.881-2.328 8.434-6.433.643-4.776 4.053-8.746 8.688-10.112 6.49-1.914 13.322 1.794 15.203 8.171 3.231 11.51 8.884 22.208 16.537 31.442-16.324 5.783-34.73 4.929-50.924-2.712-18.783-8.862-31.773-25.331-35.638-45.181-7.147-36.765 15.252-57.436 41.19-81.37 2.213-2.042 4.433-4.091 6.634-6.151 10.963-10.239 18.917-24.106 24.316-42.404 2.124-7.234 4.854-21.945 6.133-29.496.691-4.084-2.059-7.955-6.143-8.646-4.085-.691-7.955 2.06-8.646 6.143-1.325 7.822-3.945 21.673-5.733 27.764-4.618 15.647-11.214 27.317-20.171 35.682-2.181 2.042-4.375 4.066-6.563 6.084-26.787 24.719-54.486 50.28-45.742 95.259 4.789 24.591 20.812 44.959 43.962 55.882 21.962 10.363 47.318 10.531 68.856.672 14.445 11.934 31.807 18.45 49.413 18.45 17.618 0 34.98-6.515 49.415-18.449 21.534 9.855 46.879 9.688 68.829-.668 23.146-10.921 39.169-31.291 43.958-55.885 8.766-44.945-18.899-70.494-45.655-95.202-2.205-2.037-4.418-4.081-6.626-6.149-8.951-8.359-15.547-20.029-20.165-35.676-3.238-10.979-5.272-23.133-6.771-35.66l37.835-57.284c23.394 29.305 59.404 48.118 99.729 48.118 70.343 0 127.57-57.229 127.57-127.573s-57.227-127.572-127.57-127.572z"/></g></g></svg>