<svg id="icon" enable-background="new 0 0 512 512" height="512" viewBox="0 0 512 512" width="512" xmlns="http://www.w3.org/2000/svg"><path d="m50.876 133.364 19.768-17.9 13.712-15.22h41.4l13.204 15.516 3.716 20.844-34.56 48.596z" fill="#e8c79c"/><path d="m108.116 189.2c-.992-.001-1.949-.37-2.684-1.036l-57.24-51.84c-1.637-1.483-1.761-4.013-.278-5.65.088-.097.181-.19.278-.278l19.6-17.76 13.58-15.072c.758-.842 1.838-1.324 2.972-1.324h41.4c1.173 0 2.288.514 3.048 1.408l13.2 15.516c.459.539.767 1.191.892 1.888l3.716 20.84c.189 1.057-.055 2.145-.676 3.02l-34.56 48.6c-.751 1.055-1.966 1.68-3.26 1.68zm-51.28-55.84 50.632 45.84 30.98-43.564-3.248-18.108-11.304-13.284h-37.76l-12.536 13.9c-.092.1-.188.196-.288.288z" fill="#2f3a5a"/><path d="m197.224 283.904c.176-12.608-.86-100.128-5.224-119.544-6.208-27.436-33.864-41.96-53.04-48.896v.296c.004 18.866-15.287 34.163-34.153 34.167s-34.163-15.287-34.167-34.153c0-.005 0-.009 0-.014v-.296c-19.196 6.936-46.828 21.46-53.04 48.896-4.356 19.416-5.392 106.936-5.2 119.544z" fill="#8ccfb5"/><path d="m197.224 287.904h-184.824c-2.187 0-3.969-1.757-4-3.944-.024-1.78-.104-5.048-.208-9.4-.676-27.884-2.264-93.2 1.6-110.332 6.608-29.404 40.116-45.532 59.492-52.524 2.078-.749 4.37.329 5.119 2.407.156.434.236.892.237 1.353-.082 16.657 13.355 30.226 30.012 30.308s30.226-13.355 30.308-30.012c-.002-1.344.628-2.61 1.7-3.42 1.045-.792 2.409-1.029 3.66-.636 12.712 4.592 51.388 18.576 58.664 50.78 4.072 18.076 2.76 91.86 2.332 116.108l-.088 5.368c-.031 2.189-1.815 3.946-4.004 3.944zm-180.924-8h176.992l.024-1.456c1.144-64.4.42-102.836-2.14-114.208-5.576-24.684-34-37.6-48.616-43.2-2.918 20.863-22.197 35.41-43.06 32.492-16.849-2.357-30.1-15.587-32.484-32.432-18.08 7.2-44.156 21.448-49.444 44.872-3.644 16.176-2 83.16-1.404 108.376.052 2.136.096 3.992.132 5.556z" fill="#2f3a5a"/><path d="m153.544 58.276c-3.404-.996-7.528 3.944-9.2 11.036s-.276 13.648 3.128 14.648 7.528-3.944 9.2-11.036.276-13.652-3.128-14.648z" fill="#e8c79c"/><path d="m148.372 88.088c-.688 0-1.372-.098-2.032-.292-5.684-1.668-8.164-9.828-5.896-19.404.894-5.243 3.793-9.933 8.084-13.076 1.832-1.14 4.058-1.459 6.136-.88 5.684 1.664 8.168 9.824 5.9 19.408-.894 5.243-3.793 9.933-8.084 13.076-1.241.747-2.659 1.151-4.108 1.168zm4.06-25.804c-2.243 2.11-3.724 4.904-4.212 7.944-.997 3.183-.878 6.61.336 9.716 2.246-2.109 3.731-4.902 4.224-7.944.998-3.182.88-6.61-.336-9.716z" fill="#2f3a5a"/><path d="m57.36 58.352c3.576-1.044 7.824 3.864 9.492 10.956s.12 13.692-3.456 14.736-7.828-3.864-9.492-10.956-.12-13.692 3.456-14.736z" fill="#e8c79c"/><path d="m62.4 88.188c-1.516-.019-2.999-.443-4.296-1.228-4.29-3.096-7.198-7.748-8.104-12.96-2.248-9.6.372-17.78 6.232-19.492 2.169-.603 4.491-.268 6.4.924 4.297 3.095 7.21 7.75 8.116 12.968 2.252 9.6-.368 17.78-6.232 19.492-.688.199-1.4.299-2.116.296zm-3.952-25.932c-1.517 3.09-1.753 6.653-.656 9.916 1.244 5.288 3.832 7.876 4.656 8 1.382-3.146 1.562-6.69.504-9.96-.432-3.128-2.042-5.974-4.5-7.956z" fill="#2f3a5a"/><ellipse cx="105.492" cy="64.228" fill="#e8c79c" rx="40.876" ry="53.148"/><path d="m105.496 121.38c-24.744 0-44.876-25.636-44.876-57.152s20.132-57.148 44.876-57.148 44.872 25.636 44.872 57.148-20.128 57.152-44.872 57.152zm0-106.3c-20.332 0-36.876 22.048-36.876 49.152s16.544 49.152 36.876 49.152 36.876-22.048 36.876-49.152-16.544-49.152-36.876-49.152z" fill="#2f3a5a"/><path d="m149.264 43.264c-.398-10.376-4.542-20.256-11.664-27.812-7.175-8.007-17.684-12.196-28.4-11.32-8.229.081-16.363 1.775-23.94 4.988-8.228 4.2-14.928 10.879-19.156 19.092-6.854 13.187-7.325 28.779-1.28 42.356 1.2-5.6 3.076-11.852 6.336-22.156 3.5-4.821 8.631-8.207 14.44-9.528 6.184-1.328 12.68-.192 18.892-1.372 7.408-1.512 13.805-6.145 17.552-12.712 5.404 3.745 9.931 8.617 13.272 14.28 4.98 7.972 8.572 25.2 10.344 35.064 2.732-10.057 3.947-20.465 3.604-30.88z" fill="#9297ab"/><path d="m145.66 78.128h-.084c-1.907-.039-3.521-1.419-3.856-3.296-2.912-16.248-6.4-28.196-9.8-33.652-2.416-3.994-5.426-7.597-8.928-10.684-4.417 5.647-10.708 9.529-17.736 10.944-3.263.529-6.567.762-9.872.696-2.99-.079-5.981.141-8.928.656-4.644 1.063-8.775 3.706-11.688 7.476-3.084 9.76-4.876 15.768-6.032 21.136-.466 2.159-2.594 3.532-4.754 3.066-1.198-.259-2.212-1.053-2.75-2.154-6.613-14.714-6.125-31.647 1.324-45.956 4.625-8.953 11.938-16.232 20.912-20.816 7.591-3.334 15.767-5.131 24.056-5.288l1.352-.112c11.543-1.024 22.916 3.32 30.836 11.78l.644.616c7.85 8.23 12.434 19.036 12.896 30.4.379 10.804-.864 21.604-3.688 32.04-.4 1.836-2.025 3.146-3.904 3.148zm-33.352-70.128c-.893 0-1.817.039-2.772.116l-1.36.112c-7.264.101-14.438 1.618-21.12 4.468-7.471 3.827-13.556 9.898-17.4 17.36-3.955 7.808-5.638 16.57-4.856 25.288.744-2.428 1.6-5.112 2.54-8.144.132-.414.331-.805.588-1.156 4.092-5.605 10.076-9.539 16.844-11.072 3.474-.638 7.005-.917 10.536-.832 2.829.069 5.659-.112 8.456-.54 6.26-1.297 11.656-5.234 14.8-10.8 1.094-1.919 3.536-2.589 5.456-1.495.075.043.148.088.22.135 5.883 4.066 10.818 9.355 14.468 15.504 2.891 5.212 5.074 10.787 6.492 16.576.295-3.308.323-6.635.084-9.948-.307-9.381-4.002-18.333-10.4-25.2l-.708-.676c-5.636-6.116-13.552-9.626-21.868-9.696z" fill="#2f3a5a"/><path d="m119.124 283.904h-21.62-55.524l7.32 219.692h32.732l25.152-150.188 20.388 150.188h32.732l7.32-219.692z" fill="#e1e6e9"/><path d="m160.304 507.6h-32.728c-2.001 0-3.694-1.478-3.964-3.46l-16.84-124.04-20.8 124.164c-.322 1.927-1.99 3.339-3.944 3.34h-32.728c-2.159.001-3.929-1.711-4-3.868l-7.3-219.7c-.073-2.208 1.658-4.057 3.866-4.13.045-.001.089-.002.134-.002h125.624c2.209-.001 4.001 1.789 4.002 3.998 0 .045-.001.089-.002.134l-7.32 219.692c-.069 2.159-1.84 3.873-4 3.872zm-29.236-8h25.368l7.056-211.692h-117.376l7.052 211.692h25.476l24.596-146.852c.322-1.927 1.99-3.339 3.944-3.34h.064c1.976.031 3.633 1.501 3.9 3.46z" fill="#2f3a5a"/><path d="m86.4 508c.367-1.658.555-3.35.56-5.048.359-11.948-9.024-21.931-20.972-22.312-11.948.381-21.331 10.364-20.972 22.312.005 1.698.193 3.39.56 5.048z" fill="#707583"/><path d="m86.4 512h-40.844c-1.882-.001-3.509-1.313-3.908-3.152-.427-1.936-.646-3.913-.652-5.896-.345-14.152 10.821-25.917 24.972-26.312 14.15.397 25.315 12.161 24.972 26.312-.006 1.983-.225 3.96-.652 5.896-.397 1.832-2.014 3.142-3.888 3.152zm-37.352-8h33.88c.02-.352.032-.7.032-1.048.345-9.734-7.24-17.918-16.972-18.312-9.732.395-17.317 8.578-16.972 18.312-.016.348-.008.696.012 1.048z" fill="#2f3a5a"/><path d="m164.244 508c.367-1.658.555-3.35.56-5.048.716-11.583-8.094-21.552-19.676-22.268-11.583-.716-21.552 8.094-22.268 19.676-.053.863-.053 1.729 0 2.592.005 1.698.193 3.39.56 5.048z" fill="#707583"/><path d="m164.244 512h-40.828c-1.882-.001-3.509-1.313-3.908-3.152-.427-1.936-.646-3.913-.652-5.896-.72-13.791 9.876-25.554 23.667-26.273 13.791-.72 25.554 9.876 26.273 23.667.045.868.045 1.739 0 2.607-.006 1.983-.225 3.96-.652 5.896-.398 1.835-2.021 3.147-3.9 3.151zm-37.352-8h33.88c.02-.352.032-.7.032-1.048.72-9.372-6.294-17.554-15.666-18.274s-17.554 6.294-18.274 15.666c-.067.868-.067 1.739 0 2.607-.004.349.004.697.028 1.049z" fill="#2f3a5a"/><path d="m201.6 312.4c-.292-2.032-3.836-17.424-4.356-25.72v-107.28h-29.6v114.34c-1.95 7.307-4.384 14.477-7.288 21.46-1.004 2.144-2 6.276.536 8.112 1.838 1.649 4.622 1.649 6.46 0 3.158-2.191 6.018-4.783 8.508-7.712 1.2 6.508 2.456 9.932-1.016 15.56-1.246 1.54-2.033 3.401-2.268 5.368.032 1.976 11.804 14.6 17.36 11.396 4.112-2.674 7.288-6.562 9.088-11.124 2.831-7.803 3.716-16.178 2.576-24.4z" fill="#e8c79c"/><path d="m187.888 352.452c-2.409-.094-4.752-.812-6.8-2.084-4.252-2.4-12.424-9.644-12.496-13.756.119-2.512.989-4.931 2.496-6.944l.368-.588c1.06-1.528 1.637-3.34 1.656-5.2-.837.675-1.744 1.388-2.72 2.14l-.568.44c-3.254 2.719-7.979 2.749-11.268.072-3.627-3.366-4.379-8.821-1.8-13.044 2.739-6.602 5.033-13.38 6.868-20.288v-113.8c0-2.209 1.791-4 4-4h29.6c2.209 0 4 1.791 4 4v107.288c.8 7.154 1.99 14.259 3.564 21.284.4 1.936.676 3.336.752 3.868 1.239 8.972.248 18.11-2.884 26.608-2.12 5.345-5.88 9.881-10.74 12.956-1.227.699-2.616 1.06-4.028 1.048zm-11.2-16.492c2.024 3.06 9.12 9.004 11.304 8.488 3.359-2.257 5.937-5.499 7.38-9.28 2.503-7.116 3.279-14.725 2.264-22.2-.068-.468-.324-1.696-.672-3.392-1.671-7.469-2.912-15.028-3.716-22.64v-103.54h-21.6v110.344c.001.35-.045.698-.136 1.036-1.996 7.537-4.505 14.929-7.508 22.124-.536 1.019-.749 2.177-.612 3.32.8.532 1.004.36 1.42.028l.708-.548c2.531-1.702 4.836-3.718 6.86-6 .868-1.443 2.531-2.209 4.192-1.932 1.632.264 2.929 1.514 3.252 3.136l.4 2.128c1.76 5.441 1.047 11.379-1.952 16.248l-.4.664c-.447.64-.84 1.316-1.176 2.02z" fill="#2f3a5a"/><path d="m7.164 312.4c.292-2.032 3.836-17.424 4.356-25.72v-107.28h29.6v114.34c1.947 7.307 4.379 14.476 7.28 21.46 1.004 2.144 2 6.276-.536 8.112-1.838 1.649-4.622 1.649-6.46 0-3.156-2.191-6.013-4.784-8.5-7.712-1.2 6.508-2.456 9.932 1.016 15.56 1.246 1.54 2.033 3.401 2.268 5.368-.032 1.976-11.804 14.6-17.36 11.396-4.112-2.674-7.288-6.562-9.088-11.124-2.831-7.803-3.716-16.178-2.576-24.4z" fill="#e8c79c"/><path d="m20.876 352.452c-1.417.016-2.812-.344-4.044-1.044-4.862-3.075-8.623-7.613-10.744-12.96-3.133-8.496-4.124-17.633-2.888-26.604.076-.536.36-1.948.76-3.904 1.59-7.096 2.78-14.275 3.564-21.504v-107.036c0-2.209 1.791-4 4-4h29.6c2.209 0 4 1.791 4 4v113.8c1.842 6.912 4.143 13.694 6.888 20.3 2.578 4.223 1.824 9.679-1.804 13.044-3.279 2.673-7.992 2.65-11.244-.056l-.564-.456c-.976-.752-1.884-1.465-2.724-2.14.019 1.86.596 3.672 1.656 5.2l.372.592c1.507 2.01 2.376 4.426 2.496 6.936-.072 4.12-8.244 11.352-12.496 13.76-2.057 1.272-4.411 1.986-6.828 2.072zm-5.356-169.052v103.288c-.791 7.686-2.033 15.319-3.72 22.86-.352 1.716-.612 2.952-.676 3.42-1.015 7.475-.239 15.084 2.264 22.2 1.45 3.802 4.051 7.056 7.44 9.308 2.124.496 9.2-5.456 11.244-8.516-.323-.697-.703-1.366-1.136-2l-.4-.668c-2.996-4.867-3.708-10.803-1.948-16.24l.4-2.136c.388-2.175 2.466-3.623 4.641-3.235 1.199.214 2.236.963 2.815 2.035 2.023 2.27 4.322 4.277 6.844 5.976l.592.456c.532.424.74.596 1.652-.072-.001-1.108-.251-2.202-.732-3.2-3.003-7.194-5.511-14.585-7.508-22.12-.091-.338-.137-.686-.136-1.036v-110.32z" fill="#2f3a5a"/><path d="m357.052 133.364 19.764-17.9 13.716-15.22h41.4l13.204 15.516 3.712 20.844-34.556 48.596z" fill="#e8c79c"/><path d="m414.292 189.2c-.992-.001-1.949-.37-2.684-1.036l-57.24-51.84c-1.637-1.483-1.761-4.013-.278-5.65.088-.097.181-.19.278-.278l19.6-17.76 13.58-15.072c.758-.842 1.838-1.324 2.972-1.324h41.4c1.173 0 2.288.514 3.048 1.408l13.2 15.516c.46.54.768 1.193.892 1.892l3.716 20.84c.189 1.057-.055 2.145-.676 3.02l-34.56 48.6c-.751 1.055-1.966 1.68-3.26 1.68zm-51.284-55.84 50.632 45.84 30.976-43.564-3.232-18.124-11.304-13.284h-37.768l-12.52 13.9c-.092.1-.188.196-.288.288z" fill="#2f3a5a"/><path d="m503.396 291.904c.176-12.608-.864-108.128-5.236-127.544-6.196-27.436-33.852-41.964-53.028-48.896v.296c0 18.866-15.294 34.16-34.16 34.16s-34.16-15.294-34.16-34.16v-.296c-19.212 6.936-48.888 21.436-55.084 48.872-4.372 19.412-3.348 114.96-3.176 127.568z" fill="#6bb3d9"/><path d="m503.396 295.904h-184.844c-2.187 0-3.969-1.757-4-3.944-.024-1.676-.092-4.8-.192-9.024-.632-27.732-2.316-101.4 1.6-118.704 6.64-29.408 40.14-45.532 59.516-52.528 2.078-.749 4.37.329 5.119 2.407.156.434.236.892.237 1.353-.082 16.657 13.355 30.226 30.012 30.308s30.226-13.355 30.308-30.012c-.002-1.344.628-2.61 1.7-3.42 1.045-.792 2.409-1.029 3.66-.636 12.712 4.592 51.388 18.576 58.664 50.78 2.732 12.136 3.512 54.116 2.316 124.772l-.076 4.708c-.033 2.193-1.826 3.951-4.02 3.94zm-180.92-8h176.984v-.8c1.476-87.2-.34-114.96-2.124-122.876-5.576-24.684-34-37.6-48.616-43.2-2.956 20.858-22.261 35.37-43.119 32.414-16.782-2.378-29.982-15.546-32.401-32.322-18.08 7.2-44.156 21.448-49.444 44.872-3.68 16.34-1.956 91.924-1.388 116.76.032 1.964.076 3.692.108 5.152z" fill="#2f3a5a"/><path d="m459.716 58.276c-3.404-.996-7.528 3.944-9.2 11.036s-.276 13.648 3.128 14.648 7.528-3.944 9.2-11.036.276-13.652-3.128-14.648z" fill="#e8c79c"/><path d="m454.548 88.088c-.688 0-1.372-.098-2.032-.292-5.684-1.664-8.164-9.828-5.896-19.404.894-5.243 3.793-9.933 8.084-13.076 1.832-1.139 4.058-1.458 6.136-.88 5.684 1.664 8.168 9.828 5.9 19.408-.894 5.243-3.793 9.933-8.084 13.076-1.241.747-2.659 1.151-4.108 1.168zm4.06-25.804c-2.242 2.111-3.723 4.904-4.212 7.944-.998 3.182-.88 6.61.336 9.716 2.246-2.109 3.73-4.903 4.22-7.944.997-3.183.879-6.61-.336-9.716z" fill="#2f3a5a"/><path d="m363.532 58.352c3.576-1.044 7.824 3.864 9.492 10.956s.12 13.692-3.456 14.736-7.828-3.864-9.492-10.956-.12-13.692 3.456-14.736z" fill="#e8c79c"/><path d="m368.58 88.188c-1.516-.019-2.999-.443-4.296-1.228-4.291-3.095-7.2-7.747-8.104-12.96-2.252-9.6.368-17.78 6.232-19.488 2.169-.602 4.49-.267 6.4.924 4.292 3.096 7.202 7.75 8.108 12.964 2.252 9.6-.372 17.78-6.232 19.492-.685.199-1.395.298-2.108.296zm-3.956-25.932c-1.516 3.09-1.751 6.654-.652 9.916 1.244 5.288 3.832 7.876 4.656 8 1.38-3.148 1.56-6.693.504-9.964-.434-3.129-2.047-5.975-4.508-7.956z" fill="#2f3a5a"/><ellipse cx="411.668" cy="64.228" fill="#e8c79c" rx="40.876" ry="53.148"/><path d="m411.668 121.38c-24.744 0-44.876-25.636-44.876-57.152s20.128-57.148 44.876-57.148 44.876 25.636 44.876 57.152-20.144 57.148-44.876 57.148zm0-106.3c-20.332 0-36.876 22.048-36.876 49.152s16.544 49.152 36.876 49.152 36.876-22.048 36.876-49.152-16.544-49.152-36.876-49.152z" fill="#2f3a5a"/><path d="m425.296 291.904h-21.616-55.528l7.324 211.692h32.728l25.152-150.188 20.392 150.188h32.728l7.324-211.692z" fill="#e1e6e9"/><path d="m466.476 507.6h-32.732c-2.002 0-3.696-1.48-3.964-3.464l-16.84-124.04-20.8 124.164c-.322 1.927-1.99 3.339-3.944 3.34h-32.72c-2.156.001-3.925-1.706-4-3.86l-7.32-211.696c-.077-2.208 1.65-4.06 3.858-4.138.047-.002.095-.002.142-.002h125.644c2.209-.001 4.001 1.788 4.002 3.998 0 .047-.001.095-.002.142l-7.324 211.692c-.073 2.156-1.843 3.865-4 3.864zm-29.236-8h25.372l7.044-203.692h-117.364l7.044 203.692h25.464l24.592-146.848c.274-1.977 2.006-3.423 4-3.34 1.978.032 3.635 1.504 3.9 3.464z" fill="#2f3a5a"/><path d="m392.556 508c.367-1.658.555-3.35.56-5.048.716-11.583-8.094-21.552-19.676-22.268s-21.552 8.094-22.268 19.676c-.053.863-.053 1.729 0 2.592.005 1.698.193 3.39.56 5.048z" fill="#707583"/><path d="m392.556 512h-40.824c-1.882-.001-3.509-1.313-3.908-3.152-.427-1.936-.646-3.913-.652-5.896-.72-13.791 9.876-25.554 23.667-26.273 13.791-.72 25.554 9.876 26.273 23.667.045.868.045 1.739 0 2.607-.006 1.983-.225 3.96-.652 5.896-.399 1.837-2.024 3.149-3.904 3.151zm-37.356-8h33.88c.02-.352.032-.7.032-1.048.72-9.372-6.294-17.554-15.666-18.274s-17.554 6.294-18.274 15.666c-.067.868-.067 1.739 0 2.607 0 .349.028.697.028 1.049z" fill="#2f3a5a"/><path d="m470.4 508c.367-1.658.555-3.35.56-5.048.716-11.583-8.094-21.552-19.676-22.268s-21.552 8.094-22.268 19.676c-.053.863-.053 1.729 0 2.592.013 1.699.209 3.391.584 5.048z" fill="#707583"/><path d="m470.4 512h-40.8c-1.882-.001-3.509-1.313-3.908-3.152-.427-1.936-.646-3.913-.652-5.896-.698-13.792 9.916-25.538 23.707-26.237s25.538 9.916 26.237 23.707c.043.843.043 1.687 0 2.529-.006 1.983-.225 3.96-.652 5.896-.401 1.849-2.041 3.164-3.932 3.153zm-37.352-8h33.88c.02-.352.032-.7.032-1.048.705-9.373-6.321-17.544-15.695-18.249-9.373-.705-17.544 6.321-18.249 15.695-.064.85-.064 1.704 0 2.555.016.348.024.696.048 1.048h-.016z" fill="#2f3a5a"/><path d="m507.772 312.4c-1.138-5.979-2.592-11.894-4.356-17.72v-107.28h-29.6v114.34c-2.671 4.348-5.097 8.842-7.268 13.46-1.004 2.144-2 6.276.536 8.112 1.838 1.649 4.622 1.649 6.46 0 3.157-2.185 6.017-4.77 8.508-7.692 1.2 6.508 2.456 9.932-1.016 15.56-1.246 1.54-2.033 3.401-2.268 5.368.032 1.976 11.804 14.6 17.36 11.396 4.109-2.681 7.28-6.577 9.072-11.144 2.83-7.803 3.713-16.179 2.572-24.4z" fill="#e8c79c"/><path d="m494.06 352.452c-2.419-.09-4.772-.81-6.828-2.088-4.248-2.4-12.4-9.644-12.484-13.756.12-2.511.989-4.928 2.496-6.94l.368-.588c1.06-1.528 1.637-3.34 1.656-5.2-.843.68-1.755 1.397-2.736 2.152l-.556.428c-3.252 2.721-7.978 2.751-11.264.072-3.627-3.366-4.379-8.821-1.8-13.044 2.076-4.411 4.375-8.714 6.888-12.892v-113.196c0-2.209 1.791-4 4-4h29.6c2.209 0 4 1.791 4 4v106.848c1.96 5.726 3.405 11.616 4.316 17.6 1.237 8.972.245 18.11-2.888 26.608-2.121 5.347-5.882 9.885-10.744 12.96-1.227.694-2.615 1.051-4.024 1.036zm-11.2-16.492c2.024 3.06 9.088 9.004 11.3 8.488 3.36-2.256 5.938-5.498 7.38-9.28 2.503-7.116 3.279-14.725 2.264-22.2-.236-1.656-3.088-14-3.888-16.332-.333-.597-.508-1.269-.508-1.952v-103.284h-21.6v110.34c.001.756-.213 1.496-.616 2.136-2.58 4.209-4.926 8.557-7.028 13.024-.537 1.019-.752 2.176-.616 3.32.8.532 1.004.356 1.416.032l.696-.54c2.534-1.703 4.843-3.719 6.872-6 .868-1.443 2.531-2.209 4.192-1.932 1.634.264 2.931 1.517 3.252 3.14l.4 2.136c1.757 5.437 1.044 11.371-1.952 16.236l-.4.664c-.44.636-.827 1.308-1.156 2.008z" fill="#2f3a5a"/><path d="m313.336 312.4c1.138-5.979 2.592-11.894 4.356-17.72v-107.28h29.6v114.34c2.678 4.348 5.111 8.841 7.288 13.46 1.004 2.144 2 6.276-.536 8.112-1.838 1.649-4.622 1.649-6.46 0-3.158-2.191-6.018-4.783-8.508-7.712-1.2 6.508-2.456 9.932 1.016 15.56 1.246 1.54 2.033 3.401 2.268 5.368-.032 1.976-11.804 14.6-17.36 11.396-4.112-2.674-7.288-6.562-9.088-11.124-2.831-7.803-3.716-16.178-2.576-24.4z" fill="#e8c79c"/><path d="m327.048 352.452c-1.417.016-2.812-.344-4.044-1.044-4.86-3.077-8.622-7.614-10.744-12.96-3.132-8.498-4.124-17.636-2.888-26.608.916-5.976 2.361-11.859 4.316-17.58v-106.86c0-2.209 1.791-4 4-4h29.6c2.209 0 4 1.791 4 4v113.2c2.512 4.18 4.811 8.484 6.888 12.896 2.578 4.223 1.824 9.679-1.804 13.044-3.282 2.673-7.997 2.646-11.248-.064l-.572-.44c-.981-.755-1.893-1.472-2.736-2.152.019 1.86.596 3.672 1.656 5.2l.368.588c1.507 2.012 2.376 4.429 2.496 6.94-.068 4.112-8.232 11.344-12.484 13.752-2.049 1.274-4.393 1.994-6.804 2.088zm-9.752-39.48c-1.013 7.474-.237 15.081 2.264 22.196 1.45 3.802 4.051 7.056 7.44 9.308 2.14.528 9.2-5.46 11.244-8.516-.322-.703-.702-1.379-1.136-2.02l-.4-.664c-2.999-4.869-3.712-10.807-1.952-16.248l.4-2.128c.388-2.175 2.466-3.623 4.641-3.235 1.199.214 2.236.963 2.815 2.035 2.028 2.278 4.332 4.294 6.86 6l.58.448c.528.42.74.588 1.652-.072 0-1.108-.25-2.202-.732-3.2-2.103-4.468-4.45-8.817-7.028-13.028-.402-.638-.616-1.377-.616-2.132v-110.316h-21.6v103.288c0 .683-.175 1.355-.508 1.952-.8 2.312-3.652 14.668-3.888 16.332z" fill="#2f3a5a"/><path d="m455.436 43.264c-.393-10.373-4.529-20.253-11.644-27.812-7.175-8.008-17.683-12.199-28.4-11.324-8.236.079-16.377 1.775-23.96 4.992-8.228 4.2-14.928 10.879-19.156 19.092-6.854 13.187-7.325 28.779-1.28 42.356 1.2-5.6 5.708-30.4 19.288-34.636 1.678 4.749 1.18 9.995-1.36 14.344 8.378-1.316 15.516-6.79 18.96-14.54 1.266 4.889 1.553 9.98.844 14.98 18.056-7.136 17.72-22.84 19.488-25.924 5.404 3.745 9.931 8.617 13.272 14.28 4.98 7.972 8.572 25.2 10.344 35.064 2.731-10.054 3.946-20.459 3.604-30.872z" fill="#9297ab"/><g fill="#2f3a5a"><path d="m451.832 78.128h-.084c-1.905-.039-3.519-1.416-3.856-3.292-2.916-16.256-6.4-28.204-9.8-33.652-2.132-3.493-4.704-6.698-7.652-9.536-2.453 10.538-10.073 19.119-20.248 22.8-2.054.812-4.378-.194-5.191-2.249-.303-.766-.362-1.607-.169-2.407.229-1.093.339-2.207.328-3.324-4.301 3.978-9.64 6.659-15.4 7.732-2.159.466-4.288-.907-4.754-3.067-.205-.951-.057-1.944.418-2.793 1.054-1.873 1.666-3.962 1.788-6.108-5.056 4.424-9.112 13.864-12.1 28.172l-.216 1.02c-.465 2.16-2.592 3.534-4.752 3.07-1.199-.258-2.214-1.052-2.752-2.154-6.613-14.714-6.125-31.647 1.324-45.956 4.625-8.963 11.942-16.252 20.924-20.84 7.597-3.332 15.778-5.13 24.072-5.288l1.34-.108c11.544-1.019 22.916 3.326 30.84 11.784l.64.612c7.85 8.23 12.434 19.036 12.896 30.4.379 10.804-.863 21.604-3.684 32.04-.403 1.837-2.031 3.146-3.912 3.144zm-33.348-70.128c-.896 0-1.82.036-2.772.116l-1.348.112c-7.269.1-14.448 1.618-21.136 4.468-7.471 3.827-13.556 9.898-17.4 17.36-3.882 7.668-5.572 16.258-4.884 24.824 3.2-9.372 8.712-19.832 18.16-22.772 1.57-.477 3.274.041 4.312 1.312 1.691 3.221 2.28 6.908 1.676 10.496 3.763-1.922 6.782-5.038 8.584-8.86.295-.594.632-1.166 1.008-1.712 1.32-1.771 3.826-2.137 5.597-.817.745.555 1.273 1.352 1.495 2.253.714 3 1.158 6.057 1.328 9.136 5.521-4.036 9.209-10.102 10.252-16.86.264-1.478.733-2.911 1.392-4.26 1.102-1.915 3.547-2.574 5.462-1.473.064.037.128.076.19.117 5.881 4.068 10.816 9.356 14.468 15.504 2.886 5.213 5.065 10.788 6.48 16.576.295-3.308.323-6.635.084-9.948-.306-9.381-4.001-18.333-10.4-25.2l-.704-.672c-5.628-6.113-13.535-9.624-21.844-9.7z"/><path d="m340.524 103.764h-155.928c-2.209 0-4-1.791-4-4s1.791-4 4-4h155.928c2.209 0 4 1.791 4 4s-1.791 4-4 4z"/><path d="m197.476 117.716c-1.117 0-2.183-.467-2.94-1.288l-12.88-13.948c-1.494-1.618-1.399-4.139.212-5.64l13.952-12.996c1.617-1.506 4.148-1.415 5.654.202s1.415 4.148-.202 5.654l-11.036 10.28 10.164 11.02c1.498 1.624 1.396 4.154-.228 5.652-.738.68-1.704 1.059-2.708 1.06z"/><path d="m328.1 117.716c-2.209-.002-3.998-1.795-3.996-4.004.001-1.004.379-1.97 1.06-2.708l10.18-11.024-11.036-10.28c-1.617-1.506-1.708-4.037-.202-5.654s4.037-1.708 5.654-.202l13.952 12.996c1.611 1.501 1.706 4.022.212 5.64l-12.88 13.948c-.758.822-1.826 1.289-2.944 1.288z"/><path d="m258.292 88.184h-32.1c-2.209 0-4-1.791-3.999-4.001 0-1.047.411-2.052 1.143-2.799l19.808-20.216c.166-.169.346-.323.54-.46 3.342-2.375 4.127-7.01 1.752-10.352s-7.01-4.127-10.352-1.752c-1.959 1.392-3.123 3.645-3.124 6.048 0 2.209-1.791 4-4 4s-4-1.791-4-4c.001-8.518 6.907-15.424 15.425-15.423s15.424 6.907 15.423 15.425c0 4.859-2.29 9.434-6.18 12.346l-12.916 13.2h22.584c2.209 0 4 1.791 4 4s-1.791 4-4 4z"/><path d="m294.8 86.072c-2.209 0-4-1.791-4-4v-17.724l-4.544 5.652c-1.494 1.728-4.106 1.917-5.834.422-.151-.13-.292-.271-.422-.422l-4.528-5.66v17.724c0 2.209-1.791 4-4 4s-4-1.791-4-4v-29.116c-.001-2.209 1.789-4.001 3.998-4.002 1.216-.001 2.366.552 3.126 1.502l8.528 10.66 8.528-10.66c1.38-1.725 3.897-2.006 5.622-.626.95.759 1.502 1.91 1.502 3.126v29.124c0 2.2-1.776 3.987-3.976 4z"/></g></svg>