<svg id="Capa_1" enable-background="new 0 0 512 512" height="512" viewBox="0 0 512 512" width="512" xmlns="http://www.w3.org/2000/svg"><g><g><path d="m191.255 169.456s-29.184-39.317-28.36-95.396c0 0 16.5 3.927 31.063 0 28.544-7.697 56.629-64.326 106.111-65.976s59.077 21.442 59.077 21.442 18.203-10.82 45.384-7.147c40.685 5.498 76.422 67.48 40.1 152.627" fill="#565e75"/><path d="m399.534 135.727c-17.663-16.294-37.326-44.484-45.224-56.256-1.813-2.703-5.661-2.955-7.86-.554-39.845 43.518-91.456 58.02-114.551 62.531-7.036 1.374-12.1 7.547-12.1 14.716v46.586c0 52.244 42.352 94.596 94.596 94.596 52.244 0 94.596-42.352 94.596-94.596v-45.16c.001-8.281-3.37-16.249-9.457-21.863z" fill="#fdd4bb"/><path d="m314.396 279.346c-52.244 0-94.596-42.352-94.596-94.596v18c0 52.244 42.352 94.596 94.596 94.596 52.244 0 94.596-42.352 94.596-94.596v-18c0 52.244-42.352 94.596-94.596 94.596z" fill="#f7c4a8"/><path d="m219.8 202.75v-33.408c-4.205-2.312-9.034-3.631-14.173-3.631-16.27 0-29.46 13.19-29.46 29.46s13.19 29.46 29.46 29.46c5.798 0 11.2-1.682 15.758-4.574-1.038-5.611-1.585-11.395-1.585-17.307z" fill="#ebbaa1"/><path d="m408.992 202.75v-33.408c4.205-2.312 9.035-3.631 14.173-3.631 16.27 0 29.46 13.19 29.46 29.46s-13.19 29.46-29.46 29.46c-5.798 0-11.2-1.682-15.758-4.574 1.037-5.611 1.585-11.395 1.585-17.307z" fill="#ebbaa1"/><path d="m205.627 206.631c-13.131 0-24.25-8.593-28.054-20.46-.91 2.838-1.406 5.86-1.406 9 0 16.27 13.19 29.46 29.46 29.46 5.798 0 11.2-1.682 15.758-4.574-1.024-5.537-1.566-11.242-1.58-17.072-4.207 2.318-9.035 3.646-14.178 3.646z" fill="#e8a990"/><path d="m423.165 206.631c-5.143 0-9.971-1.328-14.178-3.646-.014 5.83-.556 11.535-1.58 17.072 4.558 2.892 9.96 4.574 15.758 4.574 16.27 0 29.46-13.19 29.46-29.46 0-3.14-.496-6.162-1.405-9-3.805 11.868-14.925 20.46-28.055 20.46z" fill="#e8a990"/><path d="m158.314 504v-79.887c0-67.805 47.943-124.406 111.777-137.77 13.218 7.02 28.295 11.003 44.304 11.003 16.009 0 31.086-3.983 44.304-11.003 63.834 13.363 111.777 69.965 111.777 137.77v79.887z" fill="#adf0ff"/><path d="m158.314 486h312.163v18h-312.163z" fill="#8deaf5"/><path d="m314.396 297.346c-16.129 0-31.313-4.041-44.601-11.159-.091 1.163-.151 2.334-.151 3.521 0 24.715 20.036 44.751 44.751 44.751s44.751-20.036 44.751-44.751c0-1.186-.06-2.358-.151-3.521-13.287 7.118-28.47 11.159-44.599 11.159z" fill="#ebbaa1"/><path d="m398.758 458.367h71.719v45.633h-71.719z" fill="#fdd4bb"/><path d="m398.758 486h71.719v18h-71.719z" fill="#f7c4a8"/><path d="m212.704 372.135h-141.181c-16.569 0-30 13.431-30 30v71.865c0 16.569 13.431 30 30 30h154.253c16.568 0 30-13.431 30-30v-128.525c0-4.296-5.059-6.591-8.292-3.763z" fill="#ffde91"/><path d="m225.776 486h-154.253c-16.569 0-30-13.431-30-30v18c0 16.569 13.431 30 30 30h154.253c16.568 0 30-13.431 30-30v-18c0 16.569-13.432 30-30 30z" fill="#ffce6e"/><g><path d="m148.649 467.862c-18.84 0-34.113-15.273-34.113-34.113v-18.266h68.227v18.266c0 18.84-15.273 34.113-34.114 34.113z" fill="#f4594e"/></g><path d="m148.649 449.862c-18.84 0-34.113-15.273-34.113-34.113v18c0 18.84 15.273 34.113 34.113 34.113 18.84 0 34.113-15.273 34.113-34.113v-18c.001 18.84-15.272 34.113-34.113 34.113z" fill="#e84642"/></g><g><path d="m451.051 338.512c-2.404-3.386-7.1-4.184-10.487-1.777-3.387 2.405-4.183 7.101-1.777 10.488 16.081 22.642 24.581 49.343 24.581 77.215v26.799h-56.814v-35.445c0-4.154-3.367-7.522-7.522-7.522s-7.522 3.368-7.522 7.522v42.966 38.199h-135.741c4.724-6.283 7.527-14.088 7.527-22.536v-128.773c.386-10.448-13.173-16.599-20.781-9.432l-32.719 28.621h-30.146c16.75-33.638 46.743-58.565 82.884-68.815 3.101 25.934 25.218 46.11 51.974 46.11 26.754 0 48.872-20.175 51.973-46.108 19.793 5.64 38.116 15.849 53.437 29.854 3.057 2.798 7.817 2.596 10.626-.476 2.803-3.066 2.59-7.823-.476-10.626-15.373-14.055-33.474-24.66-53.04-31.215 17.07-13.22 29.864-31.707 35.911-53.007 3.403 1.012 6.951 1.539 10.547 1.539 20.423 0 37.038-16.615 37.038-37.038 0-7.992-2.553-15.394-6.873-21.452 18.549-46.048 18.634-90.844.092-123.481-11.408-20.08-28.874-33.073-47.92-35.647-20.007-2.704-35.651 1.785-43.899 5.106-2.14-2.489-5.204-5.384-9.491-8.164-12.729-8.255-30.4-12.069-52.53-11.328-24.23.808-42.764 13.535-54.597 23.038-3.239 2.601-3.756 7.335-1.155 10.574s7.336 3.757 10.574 1.155c16.139-12.962 30.654-19.232 45.678-19.733 41.402-1.378 51.352 15.673 52.028 16.941 1.502 4.267 6.995 5.97 10.757 3.491.16-.096 16.267-9.465 40.621-6.173 14.353 1.939 27.785 12.207 36.854 28.169 7.533 13.26 22.001 49.189 1.041 105.273-5.384-3.055-11.598-4.81-18.218-4.81-2.245 0-4.481.213-6.678.616v-1.232c0-10.459-4.337-20.458-11.896-27.433 0-.001 0-.001-.001-.001-17.171-15.84-36.605-43.759-44.165-55.028-4.23-6.674-14.494-7.407-19.668-1.443-38.978 42.571-90.378 56.386-110.667 60.349-10.547 2.06-18.202 11.366-18.202 22.126v2.66c-2.198-.403-4.433-.616-6.678-.616-4.048 0-7.943.662-11.592 1.868-6.775-11.018-21.973-39.691-23.579-77.375 6.809.696 16.369.908 25.439-1.538 13.142-3.543 25.335-15.168 37.126-26.41 3.007-2.867 3.12-7.628.254-10.634-2.866-3.007-7.628-3.119-10.634-.254-10.43 9.944-21.214 20.226-30.662 22.774-12.497 3.371-27.287-.023-27.424-.055-4.516-1.196-9.311 2.537-9.262 7.207-.669 45.489 17.283 80.138 25.697 93.832-7.603 6.788-12.401 16.654-12.401 27.624 0 20.423 16.616 37.038 37.039 37.038 3.597 0 7.144-.528 10.547-1.539 6.044 21.291 18.83 39.772 35.889 52.991-39.65 13.216-71.956 42.559-88.911 81.293h-91.89c-20.721 0-37.579 16.858-37.579 37.579v72.004c0 20.721 16.858 37.579 37.579 37.579h40.329c4.154 0 7.522-3.368 7.522-7.522s-3.368-7.522-7.522-7.522h-40.329c-12.426 0-22.536-10.11-22.536-22.536v-72.004c0-12.426 10.11-22.536 22.536-22.536h141.454c1.822 0 3.581-.661 4.952-1.86l30.68-26.837v123.238c0 12.426-10.11 22.536-22.536 22.536h-84.163c-4.154 0-7.522 3.368-7.522 7.522s3.368 7.522 7.522 7.522h329.336c4.155 0 7.522-3.368 7.522-7.522v-80.041c0-31.008-9.461-60.721-27.361-85.922zm-34.243-135.864v-28.548c2.15-.683 4.406-1.04 6.678-1.04 12.128 0 21.995 9.867 21.995 21.995s-9.867 21.995-21.995 21.995c-2.58 0-5.118-.453-7.511-1.324.549-4.283.833-8.648.833-13.078zm-211.278 14.402c-12.128 0-21.995-9.867-21.995-21.995s9.867-21.995 21.995-21.995c2.273 0 4.529.357 6.678 1.04v28.547c0 4.43.284 8.795.833 13.078-2.393.872-4.931 1.325-7.511 1.325zm108.978 110.039c-17.651 0-32.467-12.322-36.327-28.812 11.295 4.305 23.539 6.671 36.327 6.671s25.032-2.366 36.327-6.671c-3.86 16.491-18.676 28.812-36.327 28.812zm-87.257-124.441v-46.676c0-3.582 2.542-6.678 6.043-7.362 21.384-4.178 75.026-18.588 116.737-62.656 8.835 12.991 27.583 39.3 44.679 55.07l-.001-.001c4.484 4.136 7.055 10.105 7.055 16.377v45.247c0 48.113-39.143 87.257-87.257 87.257-48.112.001-87.256-39.143-87.256-87.256zm236.118 294.309h-56.814v-30.678h56.814z"/><path d="m293.127 250.574c4.155 0 7.522-3.368 7.522-7.522 0-7.702 6.266-13.968 13.969-13.968 7.702 0 13.968 6.266 13.968 13.968 0 4.154 3.367 7.522 7.522 7.522s7.522-3.368 7.522-7.522c0-15.997-13.014-29.012-29.011-29.012s-29.012 13.014-29.012 29.012c-.002 4.154 3.366 7.522 7.52 7.522z"/><path d="m259.06 189.925c.506-.061 12.51-1.549 23.076-6.145 3.81-1.657 5.554-6.088 3.898-9.898-1.657-3.809-6.089-5.555-9.898-3.898-8.509 3.701-18.786 4.994-18.888 5.007-4.12.502-7.055 4.247-6.557 8.368.461 3.818 3.706 6.621 7.457 6.621.301 0 .607-.018.912-.055z"/><path d="m346.879 183.781c10.568 4.595 22.57 6.083 23.076 6.145.306.037.61.055.911.055 3.748 0 6.989-2.799 7.454-6.613.501-4.121-2.433-7.87-6.553-8.376-.103-.013-10.378-1.306-18.888-5.007-3.815-1.657-8.242.089-9.898 3.898s.09 8.241 3.898 9.898z"/><path d="m99.618 326.984c27.349 0 49.599-22.25 49.599-49.599s-22.25-49.599-49.599-49.599-49.599 22.25-49.599 49.599 22.25 49.599 49.599 49.599zm34.555-49.599c0 19.054-15.502 34.555-34.555 34.555-6.809 0-13.16-1.988-18.516-5.402l47.67-47.67c3.413 5.357 5.401 11.708 5.401 18.517zm-34.555-34.556c6.809 0 13.16 1.988 18.516 5.402l-47.67 47.67c-3.414-5.357-5.402-11.707-5.402-18.516 0-19.054 15.501-34.556 34.556-34.556z"/><path d="m148.442 475.793c22.994 0 41.7-18.707 41.7-41.701v-10.78h7.593c4.154 0 7.522-3.368 7.522-7.522s-3.368-7.522-7.522-7.522h-98.586c-4.154 0-7.522 3.368-7.522 7.522s3.368 7.522 7.522 7.522h7.593v10.78c0 22.994 18.706 41.701 41.7 41.701zm-26.657-52.48h19.136v9.079c0 4.154 3.368 7.522 7.522 7.522s7.522-3.368 7.522-7.522v-9.079h19.135v10.78c0 14.699-11.958 26.657-26.657 26.657s-26.657-11.958-26.657-26.657v-10.78z"/></g></g></svg>