<svg id="Capa_1" enable-background="new 0 0 512 512" height="512" viewBox="0 0 512 512" width="512" xmlns="http://www.w3.org/2000/svg"><g><g><path d="m320.33 259.969c-16.321 3.198-33.717-.134-48.042-10.224l-23.098-16.27-36.529-37.757 22.133-22.145c5.813-5.816 13.219-9.668 21.191-11.151-2.421-.45-4.891-.691-7.388-.691h-53.311-34.956c-5.358 0-10.497-2.129-14.286-5.917l-41.312-41.312-97.219 97.219 70.577 70.577c2.665 2.665 4.531 6.021 5.388 9.691l7.336 31.409c.857 3.671 2.725 7.029 5.391 9.694l11.206 11.2.001-.001 152.516 152.516c10.257 10.257 26.886 10.257 37.143 0 10.257-10.257 10.257-26.886 0-37.143l17.133 17.133c10.257 10.257 26.886 10.257 37.143 0 10.257-10.257 10.257-26.886 0-37.143l9.131 9.131c10.257 10.257 26.886 10.257 37.143 0 10.257-10.257 10.257-26.886 0-37.143l-9.131-9.131c10.257 10.257 26.886 10.257 37.143 0 10.257-10.257 10.257-26.886 0-37.143z" fill="#e2a770"/></g><g><path d="m272.288 249.745-23.098-16.27-36.529-37.757 22.133-22.145c5.813-5.816 13.219-9.668 21.191-11.151-2.421-.45-4.891-.691-7.388-.691h-33.387l-18.263 18.272-49.653 49.653c-9.158 9.158-14.202 21.335-14.202 34.286s5.043 25.127 14.202 34.286c9.159 9.158 21.335 14.201 34.286 14.201s25.127-5.044 34.286-14.201l35.815-35.816 7.811 5.502c14.35 10.108 31.214 15.449 48.769 15.449 1.311 0 2.623-.031 3.935-.092l29.416-1.998-21.281-21.305c-16.322 3.199-33.718-.133-48.043-10.223z" fill="#d5985c"/></g><g><g><path d="m167.867 320.98c-10.257-10.257-26.886-10.257-37.143 0l-44.388 44.388c-10.257 10.257-10.257 26.886 0 37.143 10.257 10.257 26.886 10.257 37.143 0l44.388-44.388c10.256-10.257 10.256-26.886 0-37.143z" fill="#ffddce"/></g><g><path d="m205.01 358.123c-10.257-10.257-26.886-10.257-37.143 0l-53.519 53.519c-10.257 10.257-10.257 26.886 0 37.143 10.257 10.257 26.886 10.257 37.143 0l53.519-53.519c10.257-10.257 10.257-26.886 0-37.143z" fill="#ffddce"/></g><g><path d="m242.153 395.266c-10.257-10.257-26.886-10.257-37.143 0l-44.388 44.388c-10.257 10.257-10.257 26.886 0 37.143 10.257 10.257 26.886 10.257 37.143 0l44.388-44.388c10.257-10.256 10.257-26.886 0-37.143z" fill="#ffddce"/></g><g><path d="m279.296 432.41c-10.257-10.257-26.886-10.257-37.143 0l-27.255 27.255c-10.257 10.257-10.257 26.886 0 37.143 10.257 10.257 26.886 10.257 37.143 0l27.255-27.255c10.257-10.257 10.257-26.887 0-37.143z" fill="#ffddce"/></g></g><g><g><path d="m167.867 320.98c-2.532-2.532-5.453-4.436-8.57-5.718 3.911 9.509 2.007 20.848-5.718 28.573l-44.388 44.388c-7.725 7.725-19.064 9.629-28.573 5.718 1.282 3.117 3.186 6.038 5.718 8.57 10.257 10.257 26.886 10.257 37.143 0l44.388-44.388c10.256-10.257 10.256-26.886 0-37.143z" fill="#ffcbbe"/></g><g><path d="m205.01 358.123c-2.532-2.532-5.453-4.436-8.57-5.718 3.911 9.509 2.007 20.848-5.718 28.573l-53.519 53.519c-7.725 7.725-19.063 9.629-28.573 5.718 1.282 3.117 3.186 6.038 5.718 8.57 10.257 10.257 26.886 10.257 37.143 0l53.519-53.519c10.257-10.256 10.257-26.886 0-37.143z" fill="#ffcbbe"/></g><g><path d="m242.153 395.266c-2.532-2.532-5.453-4.436-8.57-5.718 3.911 9.509 2.007 20.848-5.718 28.573l-44.388 44.388c-7.725 7.725-19.063 9.629-28.573 5.718 1.282 3.117 3.186 6.038 5.718 8.57 10.257 10.257 26.886 10.257 37.143 0l44.388-44.388c10.257-10.256 10.257-26.886 0-37.143z" fill="#ffcbbe"/></g><g><path d="m279.296 432.41c-2.532-2.532-5.453-4.436-8.57-5.718 3.911 9.509 2.007 20.848-5.718 28.573l-27.255 27.255c-7.725 7.725-19.064 9.629-28.573 5.718 1.282 3.117 3.186 6.038 5.718 8.57 10.257 10.257 26.886 10.257 37.143 0l27.255-27.255c10.257-10.257 10.257-26.887 0-37.143z" fill="#ffcbbe"/></g></g><g><path d="m365.925 155.814c-3.789 3.789-8.928 5.917-14.286 5.917h-34.956-53.311c-10.72 0-21.001 4.26-28.579 11.842l-22.133 22.145-49.653 49.653c-10.257 10.257-10.257 26.886 0 37.143 10.257 10.257 26.886 10.257 37.143 0l49.039-49.039 23.098 16.27c14.325 10.09 31.721 13.422 48.042 10.224l84.228 84.323 11.206-11.2c2.666-2.665 4.534-6.023 5.391-9.694l7.336-31.409c.857-3.669 2.723-7.026 5.388-9.691l70.605-70.605-97.22-97.217z" fill="#ffddce"/></g><g><path d="m489.386 196.595-70.605 70.605c-2.664 2.665-4.531 6.021-5.388 9.691l-7.336 31.409c-.857 3.671-2.725 7.029-5.391 9.694l-11.197 11.192 15.09 15.107 11.206-11.2c2.666-2.665 4.534-6.023 5.391-9.694l7.336-31.409c.857-3.669 2.723-7.026 5.388-9.691l70.605-70.605z" fill="#ffcbbe"/></g><g><g><circle cx="255.985" cy="84.961" fill="#e7a2cb" r="77.461"/></g><g><path d="m302.185 22.785c9.6 12.899 15.285 28.885 15.285 46.2 0 42.781-34.68 77.461-77.461 77.461-17.315 0-33.301-5.685-46.2-15.285 14.119 18.97 36.711 31.261 62.176 31.261 42.781 0 77.461-34.68 77.461-77.461 0-25.465-12.291-48.057-31.261-62.176z" fill="#e278b1"/></g><g><path d="m277.894 84.961 8.41-8.41c6.051-6.05 6.051-15.86 0-21.91-6.05-6.05-15.859-6.05-21.909 0l-8.411 8.411-8.411-8.411c-6.05-6.05-15.859-6.05-21.909 0-6.051 6.05-6.051 15.86 0 21.91l8.41 8.41-8.41 8.41c-6.051 6.05-6.051 15.86 0 21.91 3.025 3.025 6.99 4.537 10.954 4.537s7.93-1.512 10.954-4.537l8.411-8.411 8.411 8.411c3.025 3.025 6.99 4.537 10.954 4.537s7.93-1.512 10.954-4.537c6.051-6.05 6.051-15.86 0-21.91z" fill="#ecf4ff"/></g></g><g><path d="m140.746 161.116c5.233 5.233 12.189 8.115 19.587 8.115h68.196l-20.439 20.458c-2.928 2.931-2.925 7.679.005 10.606 1.464 1.463 3.382 2.194 5.301 2.194 1.92 0 3.841-.733 5.306-2.199l21.397-21.417c4.619-4.619 10.37-7.693 16.625-8.971 3.601-.671 6.494-.673 9.913-.673h84.999c7.4 0 14.358-2.883 19.593-8.117l41.34-41.329c2.929-2.929 2.93-7.677.001-10.606-2.929-2.93-7.677-2.929-10.607-.001l-41.34 41.329c-2.402 2.402-5.593 3.725-8.987 3.725h-46.548c21.677-15.411 35.859-40.707 35.859-69.27-.001-46.847-38.115-84.96-84.962-84.96s-84.961 38.113-84.961 84.961c0 28.563 14.183 53.86 35.861 69.271h-46.552c-3.391 0-6.58-1.322-8.981-3.723l-41.316-41.306c-2.929-2.928-7.678-2.928-10.606.001-2.929 2.93-2.928 7.678.001 10.606zm45.277-76.155c0-38.576 31.385-69.961 69.961-69.961s69.961 31.385 69.961 69.961-31.384 69.961-69.961 69.961-69.961-31.385-69.961-69.961z"/><path d="m428.458 325.107 7.343-31.425c.533-2.301 1.701-4.403 3.377-6.079l70.61-70.609c2.929-2.93 2.929-7.678 0-10.607-2.929-2.928-7.678-2.928-10.606 0l-70.61 70.609c-3.664 3.664-6.217 8.264-7.38 13.287l-7.339 31.406c-.543 2.32-1.713 4.425-3.389 6.095l-5.904 5.899-14.938-14.954c-2.927-2.93-7.676-2.933-10.607-.005-2.93 2.927-2.933 7.676-.005 10.606l41.324 41.348c3.544 3.537 5.496 8.246 5.496 13.259s-1.954 9.726-5.501 13.273c-7.31 7.312-19.213 7.313-26.535 0 0 0-.001-.001-.001-.001l-75.183-75.183c-2.929-2.928-7.678-2.928-10.606 0-2.929 2.93-2.929 7.678 0 10.607l84.314 84.314c3.547 3.547 5.5 8.257 5.5 13.264 0 5.013-1.953 9.727-5.501 13.273-7.312 7.312-19.217 7.312-26.537-.001l-84.64-84.639c-2.929-2.928-7.678-2.928-10.606 0-2.929 2.93-2.929 7.678 0 10.607l75.508 75.507.005.005c3.544 3.537 5.496 8.246 5.496 13.259s-1.954 9.727-5.5 13.273c-7.312 7.312-19.218 7.312-26.538.001l-25.379-25.38c-1.005-6.962-4.179-13.668-9.525-19.013-7.495-7.495-17.666-10.716-27.466-9.677 1.039-9.8-2.182-19.971-9.677-27.466-7.496-7.495-17.668-10.717-27.468-9.676 1.038-9.801-2.181-19.974-9.673-27.472-7.496-7.489-17.667-10.707-27.469-9.667 1.041-9.802-2.18-19.975-9.677-27.471-13.164-13.164-34.585-13.163-47.75 0l-18.01 18.01-5.899-5.894c-1.679-1.679-2.853-3.79-3.394-6.099l-7.334-31.407c-1.174-5.028-3.725-9.622-7.385-13.295l-70.58-70.57c-2.929-2.928-7.678-2.929-10.606.001-2.929 2.929-2.928 7.678.001 10.606l70.57 70.561c1.68 1.687 2.854 3.799 3.393 6.108l7.335 31.412c1.18 5.037 3.737 9.633 7.396 13.292l5.897 5.891-15.771 15.772c-13.165 13.165-13.165 34.585 0 47.75 5.75 5.75 13.075 8.987 20.599 9.714-4.918 12.191-2.449 26.696 7.41 36.565 6.376 6.376 14.858 9.887 23.883 9.887 4.419 0 8.706-.848 12.682-2.458.731 7.517 3.968 14.834 9.713 20.579 6.582 6.582 15.229 9.873 23.875 9.873 7.489 0 14.976-2.474 21.124-7.412 1.218 6.434 4.309 12.579 9.278 17.549 6.583 6.582 15.229 9.873 23.875 9.873 8.064 0 16.126-2.865 22.516-8.591 6.198 5.564 14.121 8.609 22.511 8.609 9.02 0 17.498-3.515 23.871-9.894 4.854-4.854 8.049-10.923 9.3-17.517 13.25 10.613 32.706 9.785 44.977-2.485 5.598-5.599 8.989-12.813 9.736-20.591 12.189 4.911 26.682 2.437 36.538-7.421 6.381-6.379 9.895-14.86 9.895-23.88 0-4.419-.845-8.708-2.457-12.686 7.517-.73 14.833-3.968 20.574-9.71 6.381-6.38 9.895-14.86 9.895-23.88 0-9.024-3.516-17.504-9.893-23.869l-15.77-15.778 5.892-5.887c3.656-3.641 6.215-8.238 7.4-13.295zm-308.808 118.382c-7.312-7.319-7.312-19.229-.002-26.546l9.031-9.031c.034-.034.07-.065.103-.098.017-.017.031-.036.048-.053l8.718-8.717c2.929-2.93 2.929-7.678 0-10.606-2.929-2.93-7.678-2.929-10.606-.001l-8.819 8.818c-7.321 7.265-19.185 7.251-26.484-.048-7.316-7.315-7.316-19.22 0-26.535l44.388-44.389c3.544-3.545 8.256-5.496 13.269-5.496 5.012 0 9.724 1.951 13.268 5.496 7.306 7.305 7.314 19.184.03 26.502-.011.01-.022.02-.032.031l-10.88 10.88c-2.929 2.93-2.929 7.678 0 10.607 2.929 2.928 7.678 2.928 10.606 0l10.826-10.827c.018-.018.038-.032.056-.05.011-.011.022-.023.033-.035 7.323-7.276 19.204-7.266 26.506.029 7.295 7.302 7.309 19.171.051 26.492-.017.017-.036.033-.053.05l-44.388 44.388c-.054.054-.104.112-.158.166l-8.97 8.97c-3.543 3.543-8.254 5.494-13.267 5.494-5.018 0-9.733-1.951-13.274-5.491zm59.544 33.501c-5.012 0-9.724-1.952-13.269-5.497-3.544-3.543-5.496-8.255-5.496-13.268 0-4.972 1.925-9.646 5.416-13.18l44.474-44.475c.015-.015.029-.031.044-.047 3.652-3.625 8.434-5.441 13.217-5.441 4.805 0 9.61 1.829 13.269 5.487 7.316 7.315 7.316 19.22 0 26.535l-44.388 44.389c-3.543 3.546-8.256 5.497-13.267 5.497zm41.008 14.514c-7.315-7.314-7.316-19.217-.003-26.533l27.258-27.258c3.658-3.658 8.463-5.487 13.269-5.487 4.805 0 9.61 1.829 13.268 5.487 7.316 7.315 7.316 19.221 0 26.536l-27.254 27.255c-7.318 7.316-19.222 7.316-26.538 0zm71.56-.002c-3.542 3.545-8.252 5.498-13.262 5.498-4.363 0-8.498-1.484-11.836-4.207l17.936-17.937c3.003-3.003 5.313-6.438 6.946-10.104l.21.21c.003.003.006.007.009.01 3.547 3.547 5.501 8.257 5.501 13.263s-1.954 9.717-5.504 13.267z"/><path d="m193.958 225.023c2.929-2.93 2.929-7.678 0-10.607-2.929-2.928-7.678-2.928-10.606 0l-25.652 25.653c-13.156 13.169-13.155 34.586.002 47.744 6.375 6.375 14.858 9.887 23.883 9.887 9.019 0 17.498-3.512 23.873-9.887l44.577-44.566 17.933 12.636c14.416 10.149 32.351 14.472 49.785 12.113l36.527 36.564c1.465 1.466 3.385 2.199 5.306 2.199 1.918 0 3.836-.731 5.301-2.194 2.93-2.927 2.933-7.676.005-10.606l-39.25-39.29c-1.765-1.768-4.294-2.537-6.749-2.06-14.672 2.878-30.089-.4-42.288-8.99l-23.09-16.27c-2.981-2.1-7.042-1.752-9.623.827l-49.041 49.029c-3.543 3.543-8.254 5.494-13.267 5.494-5.019 0-9.734-1.951-13.277-5.494-7.312-7.312-7.311-19.215 0-26.532z"/><path d="m259.092 120.584c4.342 4.343 10.116 6.734 16.258 6.734s11.917-2.392 16.258-6.733c4.343-4.343 6.734-10.116 6.734-16.259 0-6.142-2.392-11.915-6.734-16.259l-3.107-3.106 3.107-3.106c4.343-4.343 6.734-10.116 6.734-16.259 0-6.142-2.392-11.915-6.734-16.259-8.965-8.963-23.552-8.964-32.516.001l-3.107 3.107-3.108-3.108c-8.964-8.963-23.551-8.963-32.515 0-4.343 4.344-6.735 10.117-6.735 16.259 0 6.143 2.392 11.916 6.735 16.259l3.107 3.106-3.107 3.106c-4.343 4.344-6.735 10.117-6.735 16.259 0 6.143 2.392 11.916 6.734 16.258 4.342 4.343 10.116 6.734 16.258 6.734s11.916-2.392 16.257-6.733l3.108-3.108zm-8.41-19.018-8.412 8.412c-1.509 1.509-3.516 2.34-5.65 2.34-2.135 0-4.142-.831-5.652-2.341-1.509-1.51-2.341-3.517-2.341-5.651s.832-4.142 2.341-5.651l8.41-8.41c2.929-2.93 2.929-7.678 0-10.607l-8.411-8.41c-1.509-1.51-2.341-3.517-2.341-5.651s.832-4.142 2.341-5.651c3.116-3.117 8.186-3.117 11.302 0l8.411 8.411c1.406 1.406 3.314 2.196 5.303 2.196s3.897-.79 5.303-2.197l8.411-8.41c3.116-3.117 8.187-3.116 11.302-.001 1.51 1.51 2.341 3.518 2.341 5.652s-.831 4.143-2.341 5.651l-8.411 8.41c-1.407 1.407-2.197 3.314-2.197 5.304s.79 3.896 2.197 5.304l8.41 8.409c1.51 1.51 2.341 3.518 2.341 5.652s-.831 4.143-2.341 5.652c-1.509 1.509-3.516 2.34-5.651 2.34s-4.142-.831-5.651-2.34l-8.411-8.411c-1.406-1.407-3.314-2.197-5.303-2.197s-3.894.789-5.3 2.195z"/></g></g></svg>