<svg id="Capa_1" enable-background="new 0 0 512 512" height="512" viewBox="0 0 512 512" width="512" xmlns="http://www.w3.org/2000/svg"><g><g><path d="m256 112.877c-135.14 1.96-229.91 107.013-253.414 135.862-3.448 4.232-3.448 10.29 0 14.522 23.504 28.85 118.274 133.903 253.414 135.862 135.14-1.959 229.91-107.012 253.414-135.862 3.448-4.232 3.448-10.29 0-14.522-23.504-28.849-118.274-133.902-253.414-135.862z" fill="#b3dafe"/><path d="m509.418 263.265c-23.51 28.844-118.28 133.902-253.418 135.859-3.81-.052-7.579-.196-11.317-.412 129.103-7.404 219.25-107.416 242.091-135.447 3.45-4.232 3.45-10.298 0-14.53-22.84-28.031-112.987-128.043-242.091-135.447 3.738-.216 7.507-.36 11.317-.412 135.138 1.957 229.908 107.015 253.418 135.859 3.44 4.232 3.44 10.298 0 14.53z" fill="#8ac9fe"/><path d="m256 144.641c-108.62 1.525-184.791 83.263-203.683 105.71-2.771 3.293-2.771 8.006 0 11.299 18.892 22.447 95.063 104.185 203.683 105.71 108.62-1.525 184.791-83.263 203.683-105.71 2.771-3.293 2.771-8.006 0-11.299-18.892-22.447-95.063-104.186-203.683-105.71z" fill="#f9c6c6"/><path d="m459.68 261.648c-18.886 22.45-95.059 104.183-203.68 105.707-3.717-.051-7.394-.196-11.039-.433 102.731-6.611 174.393-83.597 192.641-105.274 2.77-3.295 2.77-8.001 0-11.297-18.248-21.677-89.91-98.663-192.641-105.274 3.645-.237 7.322-.381 11.039-.432 108.621 1.524 184.794 83.257 203.68 105.707 2.77 3.295 2.77 8.001 0 11.296z" fill="#f9b1b1"/></g><g fill="#d83131"><path d="m450.422 272.075c-3.12 3.347-6.745 7.095-10.854 11.111l-20.812-16.476-1.988 2.369-2.626 7.425c-1.112 3.172-4.098 5.159-7.281 5.159-.855 0-1.72-.144-2.574-.443-4.016-1.421-6.127-5.839-4.706-9.855l3.089-8.753c.309-.875.772-1.689 1.37-2.399l4.788-5.695-4.778-12.368-14.571-4.891c-4.047-1.349-6.23-5.736-4.871-9.773 1.359-4.047 5.726-6.22 9.773-4.871l18.021 6.045c2.183.731 3.923 2.389 4.758 4.541l6.961 18.052z"/><path d="m129.852 256c0 4.263-3.46 7.723-7.723 7.723h-7.157l3.419 18.042c1.246 6.591-6.271 11.616-11.884 7.857-1.72-1.153-2.914-2.966-3.295-4.984l-5.128-27.073c0-.021-.021-.124-.021-.124-.01-.041-.01-.072-.01-.113-.247-1.38-.072-3.017.474-4.315.01-.031 2.708-6.807 2.708-6.807l-28.535-17.661c3.553-3.46 7.466-7.126 11.719-10.905l30.451 18.835c3.182 1.967 4.49 5.932 3.11 9.412l-.947 2.389h5.097c4.262.001 7.722 3.461 7.722 7.724z"/><path d="m190.35 281.258-30.01 13.952h-4.515l-10.588-11.149c-2.937-3.092-7.825-3.22-10.919-.281-3.092 2.937-3.219 7.826-.282 10.919l12.872 13.553c1.458 1.535 3.483 2.404 5.6 2.404h1.816v13.221c0 4.265 3.457 7.723 7.723 7.723s7.723-3.458 7.723-7.723v-16.017l27.092-12.595c3.868-1.798 5.545-6.391 3.747-10.259-1.798-3.869-6.391-5.546-10.259-3.748z"/><path d="m381.664 300.847c2.533 3.429 1.812 8.269-1.617 10.802l-20.153 14.87-3.563 16.095h-.01c-5.664 2.75-11.503 5.355-17.547 7.775l6.663-30.039c.412-1.812 1.452-3.429 2.955-4.541l5.365-3.954v-24.54c0-1.73.587-3.419 1.658-4.778l13.974-17.722c2.636-3.347 7.497-3.923 10.844-1.277 3.357 2.636 3.923 7.497 1.287 10.844l-12.316 15.622v10.442l1.658-1.225c3.439-2.534 8.269-1.803 10.802 1.626z"/></g><circle cx="256" cy="235.979" fill="#f47c7c" r="91.503"/><path d="m347.506 235.981c0 50.531-40.975 91.496-91.506 91.496-24.117 0-46.052-9.33-62.394-24.581 13.212 7.414 28.463 11.647 44.693 11.647 50.542 0 91.506-40.965 91.506-91.496 0-26.434-11.204-50.243-29.122-66.936 27.937 15.663 46.823 45.558 46.823 79.87z" fill="#ee6161"/><circle cx="256" cy="235.979" fill="#d83131" r="56.674"/><path d="m312.679 235.981c0 31.295-25.374 56.669-56.679 56.669-18.186 0-34.364-8.557-44.734-21.872 7.95 4.253 17.043 6.663 26.692 6.663 31.295 0 56.669-25.374 56.669-56.679 0-13.13-4.459-25.209-11.956-34.807 17.857 9.535 30.008 28.359 30.008 50.026z" fill="#ca2c2c"/><circle cx="256" cy="197.243" fill="#fdd5d5" r="25.802"/><path d="m281.806 197.241c0 14.252-11.554 25.806-25.806 25.806-10.061 0-18.773-5.757-23.026-14.159 1.699.35 3.46.535 5.262.535 14.252 0 25.806-11.554 25.806-25.806 0-4.191-.999-8.146-2.781-11.636 11.73 2.43 20.545 12.81 20.545 25.26z" fill="#f9c6c6"/></g></svg>