<svg id="Layer_1" enable-background="new 0 0 464.01 464.01" height="512" viewBox="0 0 464.01 464.01" width="512" xmlns="http://www.w3.org/2000/svg"><path d="m348.881 323.39c-8.47-.1-15.92.41-22.76 1.4 27.69-20.85 45.6-53.98 45.62-91.3v-3.77c16.59 0 30.06-13.45 30.06-30.04.03-38.13.06-99.04.06-107.71 0-21.47-14.44-38.94-33.61-44.5l-6.4-1.86c-5.18-1.51-7.97-7.11-6.06-12.15l7.91-20.85c2.29-6.04-2.17-12.51-8.63-12.52l-124.2-.09c-37.47-.02-71.31 22.75-85.31 57.67-17.22-.01-31.18 13.95-31.19 31.17-.01 12.78-.07 101.77-.08 112.53-.01 15.2 12.27 28.34 28.84 28.34 0 20.182 3.05 38.234 13.6 57.81-8.12-6.53-15.72-12.64-21.72-17.47.54-1.8 4.95-17.51-4.62-30-11.053-14.427-35.287-16.642-47.53-4.4-2.95-2.4-5.65-4.81-8.53-6.86-.01 0-.01-.01-.01-.01-13.338-9.493-29.549-6.214-38.59 4.48-9.58 11.35-8.46 28.28 2.04 38.78l28.4 28.4c8.35 8.35 20.46 11.7 31.92 8.84l23.12 24.43c-17.73 12.21-31.5 29.37-37.84 49.93-4.39 14.22-4.03 19.91-3.94 64.18.01 8.82 7.17 15.96 15.99 15.97l323.42.22c8.84.01 16-7.15 16.01-15.99l.02-38.53c.04-47.52-38.46-86.07-85.99-86.1z" fill="#ffebd2"/><path d="m401.861 91.966c0 8.671-.035 69.589-.058 107.715 0 16.592-13.463 30.032-30.055 30.032.012-12.562.035-43.079.046-71.159.023-30.609-24.767-55.433-55.376-55.456l-117.771-.081c-30.609-.023-55.445 24.778-55.468 55.387l-.046 71.309c-16.572 0-28.854-13.145-28.842-28.346.008-10.756.072-99.741.081-112.529.012-17.215 13.971-31.175 31.186-31.163 14.001-34.924 47.844-57.698 85.315-57.675l124.201.094c6.461.005 10.921 6.472 8.63 12.513l-7.91 20.854c-1.912 5.04.881 10.64 6.058 12.145l6.398 1.86c19.172 5.567 33.611 23.037 33.611 44.5z" fill="#42434d"/><path d="m231.536 307.219c18.793 11.758 3.974 40.592-16.599 32.335-42.298-16.978-71.827-58.197-71.827-106.147v-74.935c0-11.643 3.59-22.449 9.725-31.369 7.686-11.177 24.998-5.635 24.915 7.93-.002.283-.001 74.998-.001 75.282 0 42.155 22.16 77.117 53.787 96.904z" fill="#fff3e4"/><path d="m401.861 91.97c-.01 8.68-.04 69.64-.06 107.77-.01 16.449-13.31 29.98-30.06 29.98.02-12.57.03-43.09.05-71.16.03-30.61-24.77-55.44-55.38-55.46l-117.77-.08c-30.61-.02-55.44 24.78-55.46 55.39l-.05 71.31c-16.548 0-28.85-13.135-28.84-28.35.037-59.042.02-34.48.08-112.53.01-17.22 13.98-31.17 31.19-31.15 14.067-35.078 47.978-57.7 85.31-57.68l124.544.091c6.295.005 10.64 6.304 8.409 12.19l-11.573 30.529 16.08 4.68c19.116 5.552 33.53 22.992 33.53 44.47z" fill="#42434d"/><path d="m363.701 12.609c-8.187 21.584-8.069 21.081-8.267 22.099l-89.922-.069c-34.902-.021-66.658 19.735-82.162 50.668-1.944 3.879-5.462 6.786-9.706 7.691-14.07 3.003-24.623 15.509-24.633 30.477l-.012 10.218c-3.718 7.436-5.808 15.83-5.819 24.709l-.028 43.313c-.012 18.704-28.876 19.944-28.861-.349.008-10.756.072-99.741.081-112.529.012-17.215 13.971-31.175 31.186-31.163 14.001-34.922 47.843-57.697 85.315-57.674l124.203.092c6.454.012 10.923 6.478 8.625 12.517z" fill="#4d4e59"/><path d="m108.851 254.74c-1.78 0-3.57-.59-5.05-1.8l-20.94-17.29c3.19-3.19 7.196-5.402 11.573-6.666 2.476-.715 5.148-.105 7.147 1.523l12.32 10.033c5.846 4.756 2.415 14.2-5.05 14.2z" fill="#ffdfba"/><path d="m310.601 221.059-30.77-23.08c-4.267-3.201-4.258-9.605 0-12.799l30.77-23.079c3.536-2.651 8.549-1.935 11.2 1.6s1.935 8.549-1.6 11.199l-22.238 16.68 22.238 16.681c3.535 2.65 4.25 7.665 1.6 11.2-2.653 3.535-7.669 4.248-11.2 1.598z" fill="#4d4e59"/><path d="m192.961 219.46c-2.651-3.535-1.935-8.55 1.6-11.2l22.238-16.681-22.238-16.68c-3.535-2.65-4.25-7.665-1.6-11.199 2.651-3.535 7.665-4.253 11.2-1.6l30.77 23.079c4.267 3.201 4.258 9.605 0 12.799l-30.77 23.08c-3.527 2.649-8.545 1.941-11.2-1.598z" fill="#4d4e59"/><path d="m434.871 409.49-.021 38.528c-.005 8.837-7.173 15.997-16.011 15.991l-323.422-.219c-8.819-.006-15.971-7.155-15.989-15.974-.089-44.266-.447-49.955 3.943-64.176 6.338-20.562 20.11-37.722 37.84-49.93l-23.12-24.43 36.92-39.23c24.973 20.087 77.582 62.401 80.64 64.86 15.74 12.66 37.12 15.75 55.8 8.05 26.314-10.836 43.954-19.971 77.43-19.57 47.53.03 86.03 38.58 85.99 86.1z" fill="#fe4f60"/><path d="m334.711 437.36h-67.72c-30.48 0-59.61-12.56-80.53-34.71l-65.25-68.94c-3.05 2.1-7.56 5.42-12.5 10.07 1.914 2.024 65.289 68.981 66.13 69.87 23.83 25.23 57.42 39.71 92.15 39.71h67.72c4.42 0 8-3.58 8-8s-3.58-8-8-8z" fill="#e84857"/><path d="m434.871 409.49-.02 38.53c-.01 8.84-7.17 16-16.01 15.99l-15.15-.01c1.545-3.791 1.158-2.542 1.18-44.51.03-35.378-21.666-69.372-59.194-81.521-8.093-2.62-6.094-14.651 2.413-14.586.263.002.527.005.791.008 47.53.029 86.03 38.579 85.99 86.099z" fill="#e84857"/><path d="m74.441 293.2c-4.28 4.28-11.224 4.286-15.511 0l-21.16-21.16c-18.296-18.296-5.545-49.012 19.867-48.87 6.326.036 9.829 7.195 6.299 12.445-7.361 10.948-6.25 26.341 3.834 36.425 2.416 2.416 4.638 4.642 6.683 6.691 3.991 4 3.984 10.474-.012 14.469z" fill="#fff3e4"/></svg>