<svg width="445" height="323" viewBox="0 0 445 323" xmlns="http://www.w3.org/2000/svg"><g fill="none"><path d="M275.695 52.119a24.449 24.449 0 0010.35-5.243 439.884 439.884 0 009.051 11.623c25.427-8.612 53.839-5.522 77.063 8.781a554.268 554.268 0 0114.823-12.467l.114.127c1.476 1.63 3.283 2.88 5.238 3.618a1045.892 1045.892 0 00-10.641 15.514 90.966 90.966 0 0110.37 9.82c12.518 13.875 19.957 30.515 22.5 47.703 2.92.625 5.79 1.294 8.703 2a10.193 10.193 0 00.137 6.706c-2.679.136-5.28.44-7.891.827.934 22.128-6.15 44.44-21.014 62.246a574.766 574.766 0 008.487 11.67c-.962.192-1.858.548-2.795.94-3.712 1.6-6.708 4.158-8.9 7.19a442.958 442.958 0 01-10.262-6.587c-11.257 8.944-24.115 14.86-37.413 17.686-1.38 6.781-2.653 13.69-3.731 20.651a8.87 8.87 0 00-6.57-.898c-.608-5.969-1.294-11.942-1.862-17.948-27.287 2.102-55.185-7.984-74.946-29.876a90.117 90.117 0 01-12.119-17.046c-4.41 1.408-8.753 2.9-13.14 4.426a22.051 22.051 0 00-3.483-11.26c3.54-2.21 7.007-4.502 10.47-6.79-7.91-22.126-6.895-46.625 2.778-68.007a262.628 262.628 0 00-8.268-4.373c1.413-2.637 2.083-5.59 2.073-8.54 3.644 1.264 7.288 2.446 10.927 3.713 4.58-7.699 10.362-14.811 17.347-21.108a92.511 92.511 0 0118.885-13.175 1136.251 1136.251 0 00-6.281-11.923" fill="#E3E9ED"/><path d="M286.047 46.874a24.428 24.428 0 01-10.35 5.243 25.917 25.917 0 01-25.626-7.809c-9.613-10.657-8.805-27.155 1.892-36.811 10.697-9.649 27.19-8.762 36.803 1.896 9.653 10.702 8.81 27.15-1.888 36.807-.25.225-.545.49-.831.674" fill="#CFD9E0"/><path d="M232.744 103.155a18.404 18.404 0 01-3.837 4.901c-7.353 6.637-18.725 6.053-25.358-1.304-6.637-7.353-6.055-18.726 1.302-25.358 7.352-6.637 18.72-6.049 25.357 1.304a17.944 17.944 0 014.609 11.917c.005 2.945-.664 5.898-2.073 8.54" fill="#E3E9ED"/><path d="M227.764 182.322a22.051 22.051 0 013.484 11.262 21.919 21.919 0 01-7.247 17.002c-9.022 8.14-22.938 7.424-31.08-1.6-8.145-9.028-7.434-22.94 1.593-31.084 9.027-8.145 22.935-7.428 31.08 1.6a24.93 24.93 0 012.17 2.82" fill="#CFD9E0"/><path d="M314.663 115.896c-5.427-6.019-4.953-15.32 1.065-20.748 6.018-5.426 15.32-4.951 20.747 1.067 5.428 6.019 4.917 15.28-1.101 20.707-6.018 5.427-15.283 4.992-20.71-1.026" fill="#EFF3F6"/><path d="M386.982 54.817c-5.006-5.724-4.52-14.42 1.12-19.508 5.728-5.166 14.556-4.715 19.676.971 5.166 5.728 4.676 14.502-1.047 19.672-4.053 3.658-9.642 4.523-14.402 2.604-1.954-.738-3.761-1.987-5.237-3.617l-.11-.122z" fill="#E3E9ED"/><path d="M309.629 203.909c-13.949-15.464-12.73-39.235 2.732-53.182 15.459-13.952 39.266-12.763 53.219 2.697 13.953 15.46 12.73 39.308-2.733 53.264-15.462 13.947-39.27 12.685-53.218-2.779m60.703-74.709c-4.45-4.934-4.096-12.526.829-16.976 4.928-4.446 12.52-4.018 16.971.916a11.962 11.962 0 01-.869 16.931 11.962 11.962 0 01-16.93-.87" fill="#EFF3F6"/><path d="M423.401 140.298a10.18 10.18 0 01-.133-6.7 10.43 10.43 0 013.134-5.098c4.511-4.07 11.465-3.676 15.536.836a10.954 10.954 0 01-.795 15.5c-4.515 4.074-11.474 3.756-15.54-.76a10.7 10.7 0 01-2.202-3.778m-90.084 113.728a8.902 8.902 0 016.573.894c.928.447 1.734 1.086 2.453 1.885 3.466 3.84 3.158 9.804-.641 13.233-3.844 3.47-9.804 3.165-13.274-.68-3.433-3.803-3.125-9.767.719-13.237a8.859 8.859 0 014.17-2.095" fill="#E3E9ED"/><path d="M391.291 223.173c2.191-3.033 5.188-5.591 8.9-7.19.937-.393 1.828-.744 2.794-.94 10.156-2.94 21.135 2.09 25.529 11.999 4.744 10.881-.253 23.574-11.102 28.363-10.881 4.735-23.538-.214-28.319-11.146-3.14-7.174-2.053-15.13 2.198-21.086" fill="#CFD9E0"/><g fill="#E3E9ED"><path d="M136 145.256a6.746 6.746 0 00-.837 3.093 121.676 121.676 0 00-4.061-.29c-2.933 6.808-8.822 12.067-16.054 14.19-.029 1.785-.09 3.557-.18 5.345h-.048a3.765 3.765 0 00-1.711.406c-.39-1.678-.797-3.372-1.22-5.05a25.162 25.162 0 01-3.933.314 25.106 25.106 0 01-13.958-4.197c-.669.484-1.337.95-2.02 1.416a2.816 2.816 0 00-1.403-1.21c.467-.575.886-1.165 1.29-1.772-4.718-3.897-7.99-9.473-8.899-15.813-1.306-.153-2.63-.291-3.966-.414a4.06 4.06 0 00.324-.747 5.92 5.92 0 00.169-3.155c1.088-.312 2.162-.609 3.25-.888a24.927 24.927 0 013.287-10.945 123.178 123.178 0 00-3.551-4.581 2.45 2.45 0 001.399-1.182c1.338.978 2.692 1.94 4.03 2.934 4.615-5.988 11.845-9.849 19.995-9.859 1.977-.001 3.906.23 5.742.663a147.952 147.952 0 001.52-3.514c.826.7 1.837 1.18 2.958 1.366-.2 1.134-.371 2.27-.542 3.402a25.153 25.153 0 0113.454 13.135c.81-.28 1.618-.577 2.427-.889.28.778.762 1.46 1.37 2.003-.933.515-1.85 1.044-2.783 1.557a25.123 25.123 0 011.127 7.459 25.522 25.522 0 01-.786 6.31c1.198.31 2.412.618 3.61.913"/><path d="M135.016 148.2a7.031 7.031 0 01.872-3.223 7.458 7.458 0 016.604-3.977 7.507 7.507 0 017.508 7.494 7.504 7.504 0 01-7.492 7.506 7.494 7.494 0 01-7.508-7.492c0-.097 0-.211.016-.308m-1.716-21.487a5.003 5.003 0 014.696-6.713 5.003 5.003 0 015.004 4.995 5.004 5.004 0 01-4.995 5.005 4.997 4.997 0 01-3.325-1.267 5.03 5.03 0 01-1.38-2.02m-14.84-15.788a6.766 6.766 0 01-3.16-1.349c-1.398-1.087-2.296-2.729-2.3-4.57-.004-3.314 2.904-6.003 6.493-6.006 3.59-.003 6.503 2.68 6.507 5.994.004 3.315-2.902 6.003-6.493 6.006-.35 0-.714-.03-1.048-.075"/><path d="M115.988 141a4.007 4.007 0 014.012 3.996 4.007 4.007 0 01-4.003 4.004 3.994 3.994 0 01-3.997-3.996 3.994 3.994 0 013.988-4.004" opacity=".545"/><path d="M115.045 167c2.187.032 3.953 1.806 3.955 3.988a4.007 4.007 0 01-3.996 4.012 3.998 3.998 0 01-4.004-4.004 3.954 3.954 0 012.216-3.573 3.922 3.922 0 011.781-.423h.048z"/><path d="M98.497 124c5.803-.005 10.498 4.457 10.503 9.983.007 5.526-4.678 10.01-10.48 10.017-5.803.006-10.513-4.47-10.52-9.998-.005-5.526 4.695-9.997 10.497-10.002" opacity=".385"/><path d="M103.488 150a3.504 3.504 0 013.512 3.496 3.503 3.503 0 01-3.505 3.504 3.488 3.488 0 01-3.495-3.496 3.488 3.488 0 013.488-3.504" opacity=".545"/><path d="M91.157 159.243c.582.23 1.075.66 1.382 1.196.291.444.461.982.461 1.565A3 3 0 0189.996 165 2.987 2.987 0 0187 162.01a2.998 2.998 0 012.99-3.01c.414-.002.813.09 1.167.243m-6.552-39.795a2.85 2.85 0 01-1.62 1.372c-.306.125-.63.18-.974.18-1.656.002-3.009-1.349-3.011-2.987A3.014 3.014 0 0182.005 115c1.64-.002 2.993 1.349 2.995 3.007 0 .522-.143 1.009-.395 1.44m-5.733 17.865a5.49 5.49 0 01-.156 2.922 3.81 3.81 0 01-.3.692c-1.179 2.434-4.014 3.66-6.648 2.8-2.88-.961-4.438-4.084-3.491-6.966a5.502 5.502 0 016.964-3.476c1.9.632 3.227 2.2 3.631 4.028"/></g><path d="M119 270.395a11.68 11.68 0 00-1.469 5.384c-2.374-.211-4.75-.373-7.124-.505-5.146 11.856-15.477 21.014-28.165 24.71-.05 3.11-.157 6.196-.317 9.308h-.083a6.645 6.645 0 00-3.002.708 499.392 499.392 0 00-2.138-8.794 44.466 44.466 0 01-6.903.546 44.28 44.28 0 01-24.487-7.308 158.062 158.062 0 01-3.545 2.467 4.93 4.93 0 00-2.46-2.108 39.464 39.464 0 002.262-3.086c-8.276-6.786-14.018-16.495-15.61-27.535a280.934 280.934 0 00-6.959-.723c.243-.405.406-.84.569-1.3.627-1.841.678-3.735.296-5.494 1.91-.543 3.793-1.06 5.703-1.547a43.18 43.18 0 015.765-19.059 214.71 214.71 0 00-6.23-7.977 4.291 4.291 0 002.454-2.058c2.348 1.703 4.723 3.38 7.071 5.109 8.096-10.427 20.78-17.15 35.08-17.168 3.467-.003 6.852.4 10.073 1.154A252.88 252.88 0 0082.449 209a10.732 10.732 0 005.188 2.378 222.978 222.978 0 00-.95 5.925c10.538 4.293 19.036 12.538 23.602 22.873 1.42-.488 2.84-1.004 4.258-1.547.491 1.353 1.338 2.542 2.404 3.488-1.637.895-3.245 1.817-4.883 2.71a43.45 43.45 0 011.978 12.99 44.131 44.131 0 01-1.38 10.986c2.103.54 4.232 1.078 6.334 1.592" fill="#E3E9ED"/><path d="M118.026 276a11.718 11.718 0 011.453-5.371A12.43 12.43 0 01130.487 264c6.883-.006 12.504 5.577 12.513 12.49.006 6.91-5.603 12.504-12.487 12.51A12.49 12.49 0 01118 276.513c0-.16 0-.351.026-.512m-2.517-36.59a8.714 8.714 0 01-.509-2.902c-.006-4.69 3.802-8.506 8.491-8.509 4.69-.006 8.506 3.802 8.509 8.491.006 4.69-3.802 8.503-8.491 8.509a8.494 8.494 0 01-5.653-2.154 8.55 8.55 0 01-2.347-3.435" fill="#CFD9E0"/><path d="M87.239 211.863a11.02 11.02 0 01-5.347-2.473A10.958 10.958 0 0178 201.01c-.006-6.074 4.914-11.004 10.988-11.01 6.077-.006 11.006 4.912 11.012 10.99.006 6.077-4.91 11.004-10.988 11.01-.592 0-1.208-.055-1.773-.137" fill="#E3E9ED"/><path d="M83.98 264c3.868-.003 7.017 3.131 7.02 6.993.003 3.861-3.137 7.004-7.006 7.007A6.99 6.99 0 0177 271.007c-.003-3.861 3.11-7.004 6.98-7.007" fill="#CFD9E0" opacity=".545"/><path d="M82.078 309c3.829.055 6.919 3.16 6.922 6.979.003 3.875-3.14 7.021-6.992 7.021A6.996 6.996 0 0175 315.994a6.919 6.919 0 013.877-6.254 6.864 6.864 0 013.118-.74h.083z" fill="#CFD9E0"/><path d="M52.996 233c9.947-.009 17.995 8.022 18.004 17.97.012 9.947-8.02 18.018-17.966 18.03-9.948.012-18.022-8.045-18.034-17.996-.009-9.947 8.048-17.995 17.996-18.004" fill="#CFD9E0" opacity=".385"/><path d="M61.48 280a5.507 5.507 0 015.52 5.494c.003 3.046-2.468 5.503-5.508 5.506A5.481 5.481 0 0156 285.506 5.481 5.481 0 0161.48 280" fill="#CFD9E0" opacity=".545"/><path d="M39.928 295.405a4.626 4.626 0 012.303 1.993 4.74 4.74 0 01.769 2.609c.003 2.762-2.245 4.99-5.007 4.993A4.978 4.978 0 0133 300.018c-.003-2.764 2.22-5.018 4.982-5.018a4.862 4.862 0 011.946.405m-12.52-68.733a4.275 4.275 0 01-2.431 2.058 3.8 3.8 0 01-1.46.27c-2.485.003-4.514-2.023-4.517-4.48a4.52 4.52 0 014.507-4.52c2.46-.003 4.49 2.023 4.493 4.51 0 .783-.214 1.513-.592 2.162" fill="#E3E9ED"/><path d="M19.768 256.84a9.983 9.983 0 01-.284 5.313c-.156.446-.312.864-.545 1.258-2.144 4.425-7.298 6.655-12.089 5.09-5.236-1.747-8.067-7.424-6.347-12.664a10.004 10.004 0 0112.663-6.32 9.968 9.968 0 016.602 7.322" fill="#CFD9E0"/><g fill="#E3E9ED"><path d="M231 273.883a4.222 4.222 0 00-.514 1.92 73.925 73.925 0 00-2.494-.18c-1.8 4.225-5.417 7.49-9.857 8.807a95.93 95.93 0 01-.111 3.318h-.03a2.292 2.292 0 00-1.05.252c-.24-1.041-.49-2.093-.748-3.134-.783.126-1.595.193-2.416.194a15.299 15.299 0 01-8.57-2.605c-.411.3-.822.59-1.241.88a1.735 1.735 0 00-.862-.752c.287-.357.544-.723.792-1.1a15.641 15.641 0 01-5.464-9.814 96.609 96.609 0 00-2.435-.258c.085-.144.142-.299.199-.463.22-.657.237-1.332.104-1.958a74.584 74.584 0 011.996-.552c.15-2.46.864-4.775 2.017-6.793a76.358 76.358 0 00-2.18-2.844 1.51 1.51 0 00.86-.733c.82.607 1.652 1.204 2.474 1.82 2.833-3.715 7.273-6.112 12.278-6.118a15.15 15.15 0 013.525.411 92.36 92.36 0 00.934-2.181 3.726 3.726 0 001.816.848 85.705 85.705 0 00-.333 2.112 15.524 15.524 0 018.261 8.152c.497-.174.994-.358 1.49-.551.172.482.469.906.842 1.243-.573.32-1.136.648-1.71.966a15.75 15.75 0 01.693 4.63 16.004 16.004 0 01-.483 3.916c.736.193 1.481.384 2.217.567m.01 1.437c.018-.7.202-1.35.523-1.934a4.475 4.475 0 013.962-2.386 4.504 4.504 0 014.505 4.496 4.502 4.502 0 01-4.495 4.504 4.496 4.496 0 01-4.505-4.495c0-.058 0-.127.01-.185m-.83-13.292a3.002 3.002 0 012.817-4.028 3.002 3.002 0 013.003 2.997 3.002 3.002 0 01-2.997 3.003 3.018 3.018 0 01-2.823-1.972"/><path d="M220.36 252.95a4.007 4.007 0 01-1.945-.9 4 4 0 111.945.9"/><path d="M218.493 272c1.381 0 2.506.895 2.507 1.998.001 1.103-1.12 2.001-2.502 2.002-1.382 0-2.497-.895-2.498-1.998-.001-1.103 1.111-2.001 2.493-2.002" opacity=".545"/><path d="M218.528 288c1.367.016 2.47.903 2.472 1.994.001 1.107-1.121 2.006-2.497 2.006-1.387 0-2.5-.894-2.503-2.002-.001-.784.556-1.463 1.385-1.787.334-.137.718-.21 1.113-.211h.03z"/><path d="M207.999 261a5.99 5.99 0 016.001 5.99 5.997 5.997 0 01-5.989 6.01 6.005 6.005 0 01-6.011-5.999 5.997 5.997 0 015.999-6.001" opacity=".385"/><path d="M210.491 277c1.382-.001 2.506.89 2.509 1.998.001 1.107-1.122 2.001-2.504 2.002-1.38.001-2.495-.89-2.496-1.998-.001-1.108 1.11-2.001 2.491-2.002" opacity=".545"/><path d="M203.078 282.122c.292.114.538.33.691.597.146.223.231.492.231.783a1.5 1.5 0 01-1.502 1.498 1.494 1.494 0 01-1.498-1.495 1.5 1.5 0 011.495-1.505c.207 0 .407.045.583.122m-4.275-24.898a1.43 1.43 0 01-.81.686c-.153.063-.316.09-.488.09a1.505 1.505 0 01-1.505-1.494 1.507 1.507 0 011.502-1.506 1.506 1.506 0 011.498 1.503c0 .261-.071.505-.197.72m-1.896 10.913c.147.68.127 1.413-.113 2.125a2.771 2.771 0 01-.218.504c-.858 1.77-2.92 2.661-4.836 2.035a4.02 4.02 0 01-2.539-5.065 4.002 4.002 0 015.065-2.528 3.987 3.987 0 012.641 2.929"/></g></g></svg>