<svg height="512" viewBox="0 0 58 58" width="512" xmlns="http://www.w3.org/2000/svg"><g id="Page-1" fill="none" fill-rule="evenodd"><g id="014---Opening-Window" fill-rule="nonzero"><path id="Shape" d="m53 55h-48l7.43-4h33.14z" fill="#95a5a5"/><path id="Shape" d="m45 9h-32c-.5522847 0-1-.44771525-1-1s.4477153-1 1-1h32c.5522847 0 1 .44771525 1 1s-.4477153 1-1 1z" fill="#bdc3c7"/><path id="Shape" d="m13 11v36l-9 4.3v-44.6z" fill="#67b9cc"/><path id="Shape" d="m13 7v4l-9-4.3v44.6l9-4.3v4l-7.43 4-4.1 2.21c-.3095239.1648161-.68276327.1554601-.9836407-.024657-.30087742-.1801171-.48542493-.5046743-.4863593-.855343v-54.66c.00093437-.35066868.18548188-.67522588.4863593-.85534298.30087743-.1801171.6741168-.18947313.9836407-.02465702z" fill="#f3d55b"/><path id="Shape" d="m54 6.7v44.6l-9-4.3v-36z" fill="#67b9cc"/><path id="Shape" d="m58 1.67v54.66c-.0009344.3506687-.1854819.6752259-.4863593.855343s-.6741168.1894731-.9836407.024657l-4.1-2.21-7.43-4v-4l9 4.3v-44.6l-9 4.3v-4l11.53-6.21c.3095239-.16481611.6827633-.15546008.9836407.02465702s.4854249.5046743.4863593.85534298z" fill="#f3d55b"/><path id="Shape" d="m27 9h4v2c0 1.1045695-.8954305 2-2 2s-2-.8954305-2-2z" fill="#95a5a5"/><path id="Shape" d="m29 47c1.1045695 0 2 .8954305 2 2v2h-4v-2c0-1.1045695.8954305-2 2-2z" fill="#95a5a5"/><g fill="#67b9cc"><path id="Shape" d="m17 40c-.4841399.0008106-.8993255-.3453119-.9856498-.8216943s.1810094-.946183.6346498-1.1153057c7.351-2.756 7.351-11.703 7.351-22.063 0-.5522847.4477153-1 1-1s1 .4477153 1 1c0 10.642 0 20.693-8.649 23.937-.1124417.0412682-.2312251.0625883-.351.063z"/><path id="Shape" d="m41 40c-.1197749-.0004117-.2385583-.0217318-.351-.063-8.649-3.244-8.649-13.295-8.649-23.937 0-.5522847.4477153-1 1-1s1 .4477153 1 1c0 10.36 0 19.307 7.351 22.063.4536404.1691227.7209741.6389233.6346498 1.1153057s-.5015099.8225049-.9856498.8216943z"/><path id="Shape" d="m29 34c-.5522847 0-1-.4477153-1-1v-17c0-.5522847.4477153-1 1-1s1 .4477153 1 1v17c0 .5522847-.4477153 1-1 1z"/></g><path id="Shape" d="m13 12.11v-2.21l-8.57-4.1c-.30731916-.14946605-.66987091-.13058315-.96.05-.28948643.18640978-.46604089.5057104-.47.85v44.6c.00395911.3442896.18051357.6635902.47.85.15887506.0992313.34268593.1512532.53.15.14926073.0014682.29670376-.0328209.43-.1l8.57-4.09v-2.22l-8 3.82v-7.77l8-2.32v-2.08l-8 2.32v-9.86h8v-2h-8v-9.86l8 2.32v-2.08l-8-2.32v-7.77z" fill="#e4c05c"/><path id="Shape" d="m54.53 5.85c-.2901291-.18058315-.6526808-.19946605-.96-.05l-8.57 4.09v2.22l8-3.82v7.77l-8 2.32v2.08l8-2.32v9.86h-8v2h8v9.86l-8-2.32v2.08l8 2.32v7.77l-8-3.82v2.22l8.57 4.09c.1332962.0671791.2807393.1014682.43.1.1873141.0012532.3711249-.0507687.53-.15.2894864-.1864098.4660409-.5057104.47-.85v-44.6c-.0039591-.3442896-.1805136-.66359022-.47-.85z" fill="#e4c05c"/></g></g></svg>